<?xml version="1.0" encoding="UTF-8" standalone="no"?>
<svg
   xmlns:dc="http://purl.org/dc/elements/1.1/"
   xmlns:cc="http://creativecommons.org/ns#"
   xmlns:rdf="http://www.w3.org/1999/02/22-rdf-syntax-ns#"
   xmlns:svg="http://www.w3.org/2000/svg"
   xmlns="http://www.w3.org/2000/svg"
   xmlns:sodipodi="http://sodipodi.sourceforge.net/DTD/sodipodi-0.dtd"
   xmlns:inkscape="http://www.inkscape.org/namespaces/inkscape"
   width="263.32065mm"
   height="263.28922mm"
   viewBox="0 0 263.32065 263.28922"
   version="1.1"
   id="svg8"
   inkscape:version="1.0.2 (e86c870879, 2021-01-15, custom)"
   sodipodi:docname="Death Star.svg">
  <defs
     id="defs2" />
  <sodipodi:namedview
     id="base"
     pagecolor="#ffffff"
     bordercolor="#666666"
     borderopacity="1.0"
     inkscape:pageopacity="0.0"
     inkscape:pageshadow="2"
     inkscape:zoom="1.4"
     inkscape:cx="437.04006"
     inkscape:cy="452.35722"
     inkscape:document-units="mm"
     inkscape:current-layer="layer1"
     inkscape:document-rotation="0"
     showgrid="false"
     fit-margin-top="0"
     fit-margin-left="0"
     fit-margin-right="0"
     fit-margin-bottom="0"
     inkscape:window-width="3840"
     inkscape:window-height="2066"
     inkscape:window-x="-11"
     inkscape:window-y="-11"
     inkscape:window-maximized="1" />
  <metadata
     id="metadata5">
    <rdf:RDF>
      <cc:Work
         rdf:about="">
        <dc:format>image/svg+xml</dc:format>
        <dc:type
           rdf:resource="http://purl.org/dc/dcmitype/StillImage" />
        <dc:title></dc:title>
      </cc:Work>
    </rdf:RDF>
  </metadata>
  <g
     inkscape:label="Layer 1"
     inkscape:groupmode="layer"
     id="layer1"
     transform="translate(-37.887464,112.17035)">
    <path
       style="fill:#000000;stroke-width:1"
       d="m 162.96443,151.06899 c -0.58208,-0.0529 -2.72521,-0.22389 -4.7625,-0.38009 -11.56615,-0.88674 -24.8954,-3.95981 -36.11562,-8.32648 -4.09079,-1.59205 -5.32689,-2.14025 -10.45104,-4.63495 C 85.888014,125.19237 64.268864,103.67328 51.614724,77.984711 43.872104,62.266781 39.769074,47.311053 38.329264,29.558636 l -0.43677,-5.385252 1.0865,-1.107054 1.08649,-1.107053 v -2.493513 -2.493512 l -1.08901,-1.109621 -1.08901,-1.10962 0.44421,-5.3826851 c 2.63731,-31.9576839 15.91036,-60.7803249 38.23959,-83.0378919 23.582606,-23.506935 53.810736,-36.807254 87.186916,-38.362104 14.38785,-0.67027 29.00162,1.06007 42.8625,5.0751 3.95463,1.14553 4.35805,1.30265 5.00449,1.94908 0.37352,0.37353 0.37492,0.49409 0.0138,1.19236 -0.27206,0.52611 -0.60302,0.77682 -1.02548,0.77682 -0.34308,0 -2.45338,-0.52495 -4.68956,-1.16654 -5.48654,-1.57418 -11.70895,-2.93979 -16.93549,-3.71678 -3.98836,-0.59291 -4.35418,-0.60946 -4.65894,-0.21074 -0.51598,0.67506 -0.39387,0.91871 1.02802,2.05135 2.8714,2.28728 2.51994,2.15875 6.47649,2.36843 1.99758,0.10586 3.89057,0.29079 4.20663,0.41096 0.9451,0.35932 5.73825,4.300009 8.70007,7.152759 l 2.76883,2.66686 3.25972,0.24192 c 6.79714,0.50445 17.34302,2.06056 19.06857,2.81368 0.99979,0.43636 1.12942,0.73903 0.81679,1.90709 -0.15981,0.59708 -0.24854,0.62079 -1.78233,0.47623 -0.88778,-0.0837 -2.56664,-0.32275 -3.73081,-0.53127 -4.4032,-0.78868 -4.33943,-0.788 -4.67593,-0.0495 -0.27781,0.60973 -0.18602,0.78741 1.12966,2.18657 0.78763,0.8376 1.90775,2.09595 2.48916,2.79633 l 1.05711,1.27341 2.87075,0.37669 c 6.94251,0.910963 11.76584,2.089023 12.82191,3.131656 0.47302,0.467008 0.57011,0.768136 0.42897,1.330492 -0.10034,0.399774 -0.35562,0.793324 -0.56729,0.874551 -0.21168,0.08123 -1.7144,-0.215948 -3.3394,-0.66039 -4.56371,-1.248195 -7.76154,-1.784337 -8.24577,-1.382464 -0.59518,0.493954 -0.48241,1.17619 0.33993,2.056503 0.63506,0.679831 0.99743,0.815332 2.61488,0.977768 2.31588,0.232574 3.55338,0.892257 3.33606,1.77837 -0.21861,0.891392 -0.59152,1.273122 -1.24369,1.273122 -0.65452,0 -1.21114,0.459709 -1.21114,1.000266 0,0.200898 0.40115,0.980757 0.89144,1.73302 0.49029,0.752266 1.21279,1.927858 1.60555,2.612425 0.79584,1.387128 0.85919,1.417899 3.43954,1.670843 1.00951,0.09896 2.10753,0.35818 2.44003,0.576046 0.62897,0.412112 2.84952,3.617052 4.30287,6.210369 0.46231,0.824912 0.98348,1.616305 1.15816,1.758648 0.17469,0.142343 2.78529,0.439528 5.80134,0.66041 4.73929,0.347086 5.58879,0.47642 6.25768,0.952712 0.56522,0.402468 1.63778,2.281782 3.97671,6.967873 1.76151,3.529219 3.20204,6.561402 3.20117,6.738183 -0.003,0.546071 0.83069,0.792446 3.30572,0.977292 1.30968,0.09781 2.7682,0.301334 3.24114,0.452271 0.74474,0.23768 0.8599,0.393305 0.8599,1.162121 0,1.09691 -0.48724,1.299961 -2.9365,1.223769 -2.29156,-0.07128 -2.62532,0.2637 -2.02302,2.030437 0.23269,0.682561 1.03271,3.02696 1.77781,5.209772 0.7451,2.182813 1.55043,4.117578 1.78962,4.299479 0.272,0.206851 1.31106,0.330729 2.77407,0.330729 3.02606,0 4.17427,0.434515 4.17427,1.579671 0,1.345311 -0.55542,1.438368 -6.65891,1.115648 -4.86815,-0.257406 -5.41635,-0.243131 -5.85342,0.15241 -0.34036,0.308015 -0.43186,0.634421 -0.31104,1.109446 0.57335,2.254025 1.97545,8.645887 1.97545,9.005596 0,0.236413 0.15482,0.641575 0.34405,0.900364 0.41266,0.56434 0.49244,0.571066 11.5622,0.974878 9.1813,0.334923 9.78958,0.447104 9.78958,1.8054319 0,1.109864 -1.04634,1.463757 -3.65502,1.236197 -1.8241,-0.159118 -2.11135,-0.122119 -2.51505,0.323969 -0.4321,0.477464 -0.42113,0.714586 0.21133,4.568436 0.36689,2.235657 0.66708,4.404203 0.66708,4.818993 0,1.889006 0.1814,1.940791 7.56371,2.159138 l 4.7856,0.141547 0.3252,-0.60764 c 0.26489,-0.494958 0.22429,-1.228434 -0.21892,-3.95530899 -0.62319,-3.83417501 -0.51204,-4.55902701 0.72696,-4.74087301 1.27732,-0.18747 1.56799,0.607981 2.43521,6.66418 0.44078,3.078189 1.04871,9.9938621 1.04991,11.9435871 0.001,1.651598 -0.0605,1.831695 -1.02488,2.998679 -1.00912,1.221171 -1.02541,1.275689 -0.99219,3.320817 0.032,1.971998 0.0849,2.146372 1.02596,3.380145 0.90779,1.190228 0.99209,1.444723 0.99111,2.991847 -0.002,2.42434 -0.7117,9.805151 -1.3185,13.703308 -2.15573,13.848743 -6.13364,26.329662 -12.36237,38.787653 -3.73434,7.46898 -4.49945,8.47776 -5.78908,7.63276 -0.57667,-0.37785 -0.65471,-0.57785 -0.51535,-1.32074 0.0903,-0.48151 0.58836,-1.62244 1.10672,-2.53541 1.69102,-2.97831 4.32757,-8.38797 4.32757,-8.87929 0,-0.79446 -0.49837,-1.05206 -1.80428,-0.93262 -2.28011,0.20854 -2.38203,0.2687 -3.19976,1.88862 -1.0075,1.99585 -1.2574,2.18129 -2.33189,1.73038 -0.77495,-0.32521 -0.83885,-0.43766 -0.69319,-1.21992 0.0882,-0.47393 0.90501,-2.76669 1.81503,-5.09503 2.01096,-5.145108 3.75104,-10.444662 4.99321,-15.207252 1.18319,-4.536458 1.2144,-4.481031 -2.42444,-4.30589 -1.91254,0.09205 -2.68213,0.235202 -3.00024,0.558062 -0.25008,0.25382 -0.83844,2.303124 -1.41603,4.932167 -1.56906,7.141985 -1.90796,7.867496 -3.40696,7.293572 -0.70633,-0.270433 -0.74617,-0.365876 -0.64368,-1.541965 0.0601,-0.68953 0.56341,-3.246673 1.11849,-5.682538 0.82232,-3.608628 0.94777,-4.502888 0.67742,-4.828646 -0.41303,-0.49767 -2.62147,-0.538906 -3.27484,-0.06115 -0.27783,0.20316 -0.65425,1.182351 -0.94081,2.447395 -0.75702,3.341881 -1.05243,4.266959 -1.56454,4.899382 -0.40778,0.50359 -0.59454,0.553564 -1.25331,0.33537 -1.02538,-0.339611 -1.09232,-1.066794 -0.37822,-4.10845 0.31127,-1.325866 0.49609,-2.689013 0.41071,-3.029214 -0.15483,-0.616905 -0.16679,-0.618551 -4.49657,-0.618551 h -4.34132 l -0.81301,-0.986324 c -0.44716,-0.542481 -0.81302,-1.193136 -0.81302,-1.4459 0,-1.009089 -2.71429,-1.430322 -3.50755,-0.544338 -0.2416,0.269848 -0.64714,1.846506 -0.97204,3.779144 -0.30661,1.823865 -0.89415,4.958633 -1.30563,6.966143 -1.02398,4.995703 -1.41137,4.677449 5.38835,4.426696 6.15357,-0.226923 6.74687,-0.122928 6.74687,1.18261 0,0.616223 -0.16104,0.977041 -0.52241,1.170438 -0.5676,0.30377 -10.17868,0.785579 -15.81561,0.792845 -3.14947,0.004 -3.5595,0.05829 -4.03489,0.533684 -0.29104,0.29104 -0.52917,0.69968 -0.52917,0.90807 0,0.49461 -2.04994,8.30205 -2.38802,9.09507 -0.17757,0.41651 -0.1659,0.78672 0.0367,1.16536 0.29091,0.54357 0.40171,0.55142 5.41279,0.3836 5.89937,-0.19758 6.46349,-0.091 6.46349,1.22049 0,0.75366 -0.12299,0.92277 -0.8599,1.18238 -0.80867,0.28489 -8.00538,0.66225 -18.85156,0.98847 -2.61937,0.0788 -6.46605,0.21629 -8.54817,0.30557 -4.39173,0.18832 -4.23855,0.091 -4.93891,3.13953 -0.23402,1.01865 -0.84796,3.32636 -1.36433,5.12826 -1.21846,4.25194 -1.31048,4.13746 3.50856,4.36434 2.77397,0.13059 3.53453,0.0904 3.77525,-0.19967 0.16579,-0.19976 0.74991,-1.53896 1.29804,-2.97598 1.27528,-3.34333 1.54082,-3.80341 2.19523,-3.80341 1.75092,0 1.94958,1.07331 0.76704,4.14431 -0.43656,1.13373 -0.79375,2.19442 -0.79375,2.35709 0,0.81868 0.96315,1.1091 4.28078,1.29082 3.92431,0.21494 3.46928,0.52265 5.26284,-3.55888 0.60749,-1.38245 1.34397,-2.77627 1.63663,-3.09738 0.49593,-0.54415 0.58364,-0.55717 1.29051,-0.19164 1.04791,0.5419 1.00349,1.66356 -0.16763,4.23343 -1.02986,2.25988 -1.08666,2.56166 -0.56382,2.99558 0.48001,0.39837 6.26096,1.1011 6.7787,0.82402 0.22252,-0.11909 0.95899,-1.21217 1.63659,-2.42906 0.67761,-1.2169 1.48832,-2.4445 1.80158,-2.72799 0.5222,-0.47258 0.62842,-0.48242 1.27722,-0.11826 1.02446,0.57502 1.01102,1.12929 -0.081,3.33874 -0.90701,1.83521 -0.94513,2.00614 -0.54583,2.44736 0.25541,0.28223 0.9884,0.54053 1.80977,0.63774 2.70743,0.32043 7.21449,1.51318 7.95227,2.10448 0.66921,0.536349 0.70248,0.649299 0.42471,1.441829 -0.25433,0.72565 -0.43159,0.85945 -1.1354,0.85703 -0.45871,-0.002 -1.42932,-0.18473 -2.15693,-0.40702 -1.84268,-0.56295 -8.62662,-1.734248 -9.11932,-1.57452 -0.22312,0.0723 -1.28412,1.53068 -2.35776,3.24077 -2.39384,3.8129 -4.12385,6.29953 -6.42024,9.22815 -1.2635,1.61137 -1.71815,2.39309 -1.61693,2.78014 0.0774,0.29616 0.27311,0.57664 0.43482,0.62329 4.63576,1.33745 5.85548,2.37876 5.04478,4.30684 -0.46599,1.10826 -2.23411,1.97765 -5.41332,2.66175 -2.23401,0.48071 -7.68952,1.36847 -8.40959,1.36847 -0.15014,0 -1.44455,1.08294 -2.87646,2.40652 -3.92445,3.62757 -8.54788,7.26826 -12.66589,9.97368 -5.52525,3.62993 -5.68029,3.73796 -5.68029,3.95781 0,0.1119 0.22824,0.34599 0.5072,0.52021 0.42572,0.26586 1.15906,0.0691 4.56407,-1.22488 2.23127,-0.8479 4.99445,-1.97384 6.1404,-2.50207 2.67046,-1.23098 3.67965,-1.26397 4.14703,-0.1356 0.31531,0.76122 0.29228,0.86452 -0.29863,1.33943 -2.72614,2.19104 -16.82345,7.16426 -26.51893,9.35531 -9.82063,2.21934 -17.22587,3.07821 -27.3026,3.16661 -4.22011,0.037 -8.14917,0.0241 -8.73125,-0.0288 z m 8.37758,-3.44255 c 1.06605,-0.73877 2.81248,-3.16504 4.04411,-5.61834 0.67536,-1.34529 0.68791,-1.43973 0.25488,-1.91823 -0.41969,-0.46376 -0.88535,-0.50328 -5.9297,-0.50328 -4.94824,0 -5.51591,0.046 -5.90796,0.47927 -0.35966,0.39741 -0.38184,0.61677 -0.12988,1.2843 0.27173,0.71989 0.22123,0.92801 -0.47757,1.96812 l -0.78143,1.16311 -3.29689,-0.0782 c -4.80402,-0.11391 -12.88038,-0.54395 -16.46432,-0.87666 -1.71229,-0.15896 -3.28987,-0.22125 -3.50573,-0.13842 -0.32553,0.12492 -0.59518,1.22555 -0.30025,1.22555 0.0507,0 1.4497,0.30032 3.10885,0.66738 7.90288,1.7484 16.82731,2.81168 25.07973,2.98807 3.18213,0.068 3.30764,0.0493 4.30616,-0.64269 z m 11.63977,-0.24333 c 2.79805,-0.58859 6.96874,-2.03804 9.60004,-3.33633 2.04965,-1.0113 2.28131,-1.19941 2.21107,-1.79551 -0.078,-0.66155 -0.0939,-0.66546 -2.45971,-0.60417 -1.30969,0.0339 -3.76709,0.13448 -5.46089,0.22347 l -3.07964,0.16178 -2.02634,2.36499 c -1.51253,1.76531 -1.98505,2.49511 -1.86347,2.87816 0.19652,0.61919 0.5828,0.63269 3.07894,0.10761 z m 19.10279,-3.17909 c 4.31214,-1.08661 5.20963,-1.69494 4.1152,-2.78937 -0.87172,-0.87173 -2.79998,-0.52055 -4.7842,0.87129 -1.58918,1.11475 -1.65247,1.20223 -1.38117,1.90922 0.19515,0.50855 0.0693,0.50801 2.05017,0.009 z m -20.17207,-4.81739 c 1.45287,-2.13138 4.35481,-7.54527 5.5336,-10.32353 0.55856,-1.31645 0.56664,-1.42345 0.14296,-1.89161 -0.37716,-0.41676 -0.71122,-0.47425 -2.08581,-0.35898 -0.90021,0.0755 -1.78565,0.27621 -1.96766,0.44605 -0.18201,0.16983 -0.79796,2.03085 -1.36877,4.1356 -0.98849,3.64483 -2.43045,8.03694 -2.97749,9.06924 -0.30877,0.58267 0.18779,1.30194 0.81639,1.18256 0.23167,-0.044 1.08971,-1.06069 1.90678,-2.25933 z m -21.99078,1.52288 c 0.20138,-0.37629 0.20104,-0.68268 -0.001,-1.06054 -0.43434,-0.81157 -2.23705,-6.44755 -2.92799,-9.15405 l -0.61509,-2.40938 0.83679,-1.05654 0.83679,-1.05653 2.58899,0.1233 c 3.7114,0.17675 3.55031,0.51578 3.01591,-6.34733 -0.31805,-4.08473 -0.52813,-5.58304 -0.8238,-5.87545 -0.3351,-0.33141 -1.93557,-0.39857 -10.28191,-0.43143 -11.43239,-0.045 -11.03959,-0.12377 -10.23041,2.05137 3.83602,10.31149 8.3925,18.90555 12.74139,24.03177 l 1.45407,1.71398 h 1.56162 c 1.29084,0 1.61073,-0.0918 1.84483,-0.52917 z m -8.72265,-0.28065 c 0.25008,-0.46727 0.0675,-0.87399 -1.27653,-2.84427 -3.75991,-5.51166 -8.54755,-15.38861 -10.74623,-22.16956 -0.75886,-2.34041 0.13021,-2.13499 -11.26917,-2.60378 -8.53754,-0.35109 -14.00971,-0.63274 -19.54923,-1.00618 -0.65137,-0.0439 -0.99357,0.0864 -1.25298,0.47709 -0.32508,0.48959 -0.20007,0.73687 1.40271,2.77461 5.69779,7.24403 13.13942,14.41187 19.96449,19.22996 2.19631,1.55047 6.63103,4.31095 8.31012,5.17281 0.86078,0.44183 4.11002,0.87126 9.24885,1.22236 5.02048,0.34302 4.84435,0.35165 5.16797,-0.25304 z m -23.79049,-2.42236 c 0.27618,-0.51606 0.22463,-0.65086 -0.43003,-1.12448 -8.13601,-5.88613 -16.26639,-13.93358 -22.46309,-22.23397 -0.97776,-1.30969 -1.93627,-2.57648 -2.13004,-2.81509 -0.21862,-0.26922 -0.94004,-0.4934 -1.90123,-0.59081 -0.851896,-0.0863 -3.513446,-0.35072 -5.914546,-0.58754 -2.40109,-0.23683 -6.86593,-0.78642 -9.92187,-1.22133 -6.91411,-0.98398 -6.48878,-0.95842 -6.84092,-0.41116 -0.24975,0.38813 -0.009,0.75151 1.55284,2.3402 8.41763,8.56434 20.40725,17.11417 32.502556,23.17765 3.35772,1.68326 3.66808,1.78235 9.03343,2.88434 3.05594,0.62766 5.70089,1.14734 5.87767,1.15486 0.17679,0.008 0.46263,-0.25018 0.63523,-0.57267 z m 71.22316,-1.47931 c 2.61844,-2.21408 5.78415,-5.33712 7.88888,-7.78257 1.39366,-1.61926 1.51914,-1.86065 1.22338,-2.35343 -0.30636,-0.5104 -0.49732,-0.53837 -2.71082,-0.39699 -1.30969,0.0836 -4.7625,0.22885 -7.67292,0.32268 -2.91042,0.0938 -5.43016,0.28094 -5.59944,0.4158 -0.16928,0.13485 -0.80961,1.40004 -1.42296,2.81153 -0.61334,1.41149 -1.76663,3.84954 -2.56285,5.41789 -1.9713,3.88297 -2.11589,3.75375 3.97603,3.55338 l 4.71259,-0.15501 z m -21.33022,-0.25889 c 0.1728,-0.10987 0.43328,-0.51302 0.57884,-0.89589 0.21178,-0.55701 0.17127,-0.78064 -0.20272,-1.11909 -0.40526,-0.36676 -1.47008,-0.42298 -8.01231,-0.42298 -7.09976,0 -7.57201,0.0299 -8.0039,0.50716 -0.38475,0.42515 -0.40637,0.60698 -0.13369,1.12448 0.17891,0.33953 0.45629,0.7048 0.6164,0.81171 0.3852,0.2572 14.75245,0.25209 15.15738,-0.005 z m 35.99772,-6.75508 c 1.63592,-1.48189 2.97538,-2.82041 2.97656,-2.97449 0.001,-0.15409 -0.14666,-0.48054 -0.32856,-0.72545 -0.26801,-0.36085 -0.59431,-0.41361 -1.72063,-0.2782 -1.37407,0.16518 -1.41206,0.19455 -3.33494,2.57753 -1.06977,1.32574 -2.75111,3.27764 -3.73631,4.33754 -1.72132,1.85183 -1.77344,1.9468 -1.33459,2.43172 0.44453,0.4912 0.51054,0.46233 2.48038,-1.08484 1.11303,-0.87422 3.36217,-2.80193 4.99809,-4.28381 z m 4.60946,2.16237 c 2.35894,-1.73849 6.58626,-5.19288 6.88362,-5.62499 0.099,-0.14385 0.065,-0.47631 -0.0755,-0.73881 -0.30084,-0.56213 -1.91895,-0.64245 -2.75035,-0.13651 -0.29104,0.17711 -2.0512,1.87918 -3.91145,3.78238 -2.46889,2.52589 -3.33653,3.57962 -3.21284,3.90195 0.27337,0.71237 0.73534,0.534 3.06648,-1.18402 z m -38.72956,-1.08639 c 0.35423,-0.43039 1.64987,-5.7428 2.81984,-11.56203 0.87665,-4.3603 0.90324,-4.64431 0.47866,-5.11346 -0.42609,-0.47082 -0.84296,-0.48884 -7.98643,-0.34535 -5.69809,0.11446 -7.62148,0.236 -7.88364,0.49815 -0.34105,0.34106 -0.25962,2.92873 0.34303,10.90029 0.15626,2.06687 0.14151,2.13846 -0.62688,3.04271 -0.78596,0.92494 -0.78979,0.9261 -3.21739,0.97624 -2.35584,0.0486 -3.18461,0.30567 -3.18461,0.98761 0,0.89311 0.55406,0.94657 9.8101,0.94657 7.01852,0 9.23909,-0.0777 9.44732,-0.33073 z m 10.17443,-7.23728 c 0.52971,-0.15965 3.20578,-8.17059 3.06361,-9.17107 -0.0804,-0.56598 -0.20901,-0.5943 -3.02128,-0.66557 -2.14588,-0.0544 -3.00995,0.0169 -3.20699,0.26458 -0.14834,0.18646 -0.65002,2.28561 -1.11485,4.66478 -0.80668,4.12892 -0.82411,4.34898 -0.38308,4.83631 0.40186,0.44405 0.70566,0.49096 2.33233,0.36008 1.02866,-0.0828 2.07727,-0.21287 2.33026,-0.28911 z m 17.53169,-0.36481 c 2.18281,-0.12059 4.14734,-0.29158 4.36563,-0.37998 0.48185,-0.19515 3.96875,-5.32298 3.96875,-5.83645 0,-0.79098 -0.72242,-1.08591 -2.80781,-1.14632 -1.14784,-0.0333 -2.22829,0.0335 -2.40099,0.14835 -0.1727,0.11485 -0.66794,0.92081 -1.10055,1.79103 -0.4326,0.87023 -1.09031,1.8665 -1.46158,2.21393 -0.61117,0.57195 -0.75109,0.6002 -1.47913,0.29863 -1.08115,-0.44783 -1.03901,-1.0041 0.28198,-3.72245 2.65422,-5.4619 5.17207,-11.52873 7.15378,-17.237269 0.8453,-2.435 0.78175,-2.47566 -4.19183,-2.68193 -6.37331,-0.26433 -8.7057,-0.22408 -9.01637,0.15559 -0.14885,0.1819 -0.52678,1.52135 -0.83985,2.97656 -1.45152,6.746899 -3.4563,14.333879 -5.16013,19.528189 -1.02761,3.1328 -1.09955,3.61999 -0.60727,4.11227 0.34295,0.34295 4.28326,0.2777 13.29537,-0.22015 z m 14.3707,-1.7966 c 3.58216,-4.00938 3.63762,-4.64028 0.4335,-4.93063 -1.38196,-0.12523 -2.13401,-0.0869 -2.38525,0.12163 -0.2018,0.16748 -1.03195,1.35848 -1.84476,2.64666 -1.28992,2.04432 -1.43885,2.41503 -1.17115,2.91523 0.28525,0.53299 0.439,0.56103 2.1987,0.40086 1.75534,-0.15977 1.95536,-0.24311 2.76896,-1.15375 z m 7.93686,0.20442 c 0.46308,0 1.10575,-0.44614 2.07974,-1.44374 1.52271,-1.55961 1.57671,-1.6761 1.07885,-2.32727 -0.23679,-0.3097 -0.84911,-0.45559 -2.15561,-0.5136 l -1.82488,-0.081 -1.31166,1.65763 c -1.07362,1.3568 -1.28016,1.78313 -1.13808,2.3492 0.164,0.65343 0.24054,0.6824 1.38752,0.52519 0.66768,-0.0915 1.51553,-0.16639 1.88412,-0.16639 z m 10.15484,-1.4867 c 0.37846,-0.2339 0.22719,-1.36191 -0.20487,-1.5277 -0.89484,-0.34338 -2.41013,-0.16034 -2.86886,0.34655 -0.3764,0.41592 -0.40295,0.61184 -0.14758,1.08901 0.28035,0.52383 0.44584,0.56402 1.65954,0.40302 0.74148,-0.0984 1.44427,-0.23826 1.56177,-0.31088 z m -3.35823,-5.33038 c 0.93838,-0.68941 5.43725,-6.6548 8.18334,-10.8509 3.04488,-4.652669 3.08189,-4.542259 -1.70105,-5.075089 -2.99377,-0.33351 -2.67361,-0.57501 -5.07137,3.825359 -1.89937,3.4857 -4.83567,8.41391 -5.69001,9.54997 -1.10872,1.47431 -0.70141,2.26797 1.28746,2.5087 2.06455,0.24988 2.69656,0.25875 2.99163,0.042 z m -7.33027,-3.17094 c 1.966,-2.9423 4.39104,-6.95585 5.99056,-9.91468 1.82375,-3.373599 1.74734,-3.467389 -3.0931,-3.797099 -1.81476,-0.12361 -2.69139,-0.0839 -2.9536,0.13369 -0.2051,0.17021 -0.86763,1.46432 -1.47231,2.875809 -0.60469,1.41149 -2.12403,4.63352 -3.37632,7.16007 -1.77118,3.57343 -2.21663,4.68999 -2.00553,5.02709 0.27446,0.43828 1.67982,0.70772 4.11343,0.78865 l 1.24995,0.0416 z m -10.7225,1.05833 c 0.55972,-0.62032 4.32258,-7.96375 5.893,-11.50054 1.45866,-3.285079 1.40879,-3.532249 -0.75719,-3.753229 -3.85602,-0.39339 -5.26255,-0.36725 -5.73642,0.10662 -0.25491,0.25492 -0.85291,1.63906 -1.32888,3.075889 -0.47597,1.43682 -1.62703,4.51741 -2.55791,6.84574 -1.91509,4.79003 -1.95582,5.33424 -0.41139,5.49586 2.75256,0.28806 4.48101,0.19267 4.89879,-0.27034 z m -50.05474,-2.09968 c 0.3236,-0.3236 0.36099,-19.913609 0.0386,-20.235979 -0.3937,-0.3937 -8.03334,-0.29894 -8.43694,0.10466 -0.29147,0.29147 -0.25989,1.44747 0.1865,6.8261 0.89412,10.773599 1.18186,13.003229 1.72977,13.403869 0.56326,0.41187 6.05511,0.32829 6.48205,-0.0986 z m 15.4802,-0.17232 c 0.3127,-0.33251 0.61386,-2.09269 1.5365,-8.98031 0.51114,-3.815689 0.54335,-4.512569 0.2293,-4.960939 -0.34677,-0.49508 -0.69656,-0.52165 -6.86964,-0.52165 -5.88425,0 -6.53777,0.0441 -6.85575,0.46302 -0.27015,0.35588 -0.35343,2.00549 -0.3599,7.128749 -0.008,6.59624 -0.002,6.67003 0.58065,7.07832 0.50583,0.3543 1.35625,0.39054 6.01927,0.25654 3.59705,-0.10337 5.52789,-0.25992 5.71957,-0.46373 z m -30.86945,-0.13669 c 0.18407,-0.34393 0.0741,-1.74699 -0.36816,-4.69635 -1.49021,-9.938399 -1.4741,-10.688189 0.22952,-10.688189 1.13211,0 1.30543,0.4412 1.87085,4.7625 0.74155,5.667459 1.5395,10.449559 1.79907,10.781769 0.35438,0.45358 1.11697,0.41529 1.52519,-0.0766 0.27503,-0.3314 0.25612,-1.28069 -0.10146,-5.09323 -0.24172,-2.57725 -0.6192,-6.948099 -0.83885,-9.712999 -0.32419,-4.08075 -0.48283,-5.08934 -0.84277,-5.35781 -0.68398,-0.51017 -7.84275,-0.46041 -8.27259,0.0575 -0.25433,0.30645 -0.2341,0.94457 0.096,3.02894 0.57959,3.65943 0.33313,4.49671 -1.32955,4.51671 -0.63311,0.008 -1.17016,-1.40605 -1.57806,-4.15389 -0.233,-1.56967 -0.52609,-3.04574 -0.6513,-3.28014 -0.18808,-0.3521 -0.90791,-0.45017 -4.14066,-0.56416 -2.56708,-0.0905 -4.033,-0.0414 -4.26185,0.14288 -0.19417,0.15634 -0.32441,0.69975 -0.29375,1.22562 0.11885,2.03795 0.0244,2.33311 -0.84301,2.6355 -1.01093,0.35241 -1.0933,0.30446 -1.63238,-0.95035 -0.73594,-1.71304 -3.00733,-13.86342 -4.04585,-21.64247 -0.27763,-2.07965 -0.61602,-3.62265 -0.85587,-3.9026 -0.34943,-0.40787 -0.94228,-0.46303 -4.97658,-0.46303 -4.09365,0 -4.60546,0.0492 -4.82076,0.46303 -0.24371,0.46848 1.49683,9.85416 2.06078,11.11249 0.23586,0.5263 0.47452,0.59966 2.0584,0.63277 0.98539,0.0206 2.03066,0.0504 2.32282,0.0661 0.29216,0.0158 0.92252,0.3335 1.4008,0.70605 0.82231,0.64052 0.92504,0.92107 1.88932,5.15937 1.69161,7.43517 4.04593,15.981509 4.67857,16.983579 0.35796,0.567 0.53762,0.59532 3.77693,0.59532 4.34858,0 4.27069,0.0746 3.53702,-3.386289 -0.62934,-2.9687 -0.55128,-4.16672 0.28611,-4.39138 1.60707,-0.43117 1.73599,-0.20615 2.83499,4.94811 1.26202,5.918819 2.36981,10.067789 2.82185,10.568619 0.35115,0.38904 0.89602,0.46302 3.41031,0.46302 2.64288,0 3.02306,-0.0573 3.25488,-0.49046 z m 41.102,0.0274 c 0.42933,-0.47618 1.98772,-6.55739 3.24357,-12.657219 0.0626,-0.30389 -0.0334,-0.75382 -0.21333,-0.99984 -0.28564,-0.39065 -0.81205,-0.43796 -4.15546,-0.37351 l -3.82839,0.0738 -0.18194,0.66146 c -0.10007,0.3638 -0.5543,3.441159 -1.0094,6.838579 -0.63667,4.75292 -0.7564,6.26273 -0.51929,6.54844 0.231,0.27833 1.05171,0.37131 3.27747,0.37131 2.49249,0 3.03634,-0.0744 3.38677,-0.46302 z m -51.6669,-0.19636 c 0.40372,-0.36537 0.40444,-0.52118 0.01,-2.08947 -0.65231,-2.59133 -0.61656,-2.57076 -4.31745,-2.4845 -3.89042,0.0907 -3.99845,0.1804 -3.10238,2.57648 0.33758,0.90267 0.78277,1.81021 0.98931,2.01676 0.54828,0.54828 5.81118,0.53248 6.42087,-0.0193 z m -10.49852,-0.34397 c 0.39849,-0.44032 0.35644,-0.68115 -0.58906,-3.37343 -0.56,-1.59459 -1.3511,-4.08988 -1.758,-5.54509 -0.4069,-1.455209 -0.92704,-2.841749 -1.15587,-3.081199 -0.35359,-0.37 -1.37236,-0.46202 -6.78522,-0.61288 -5.59964,-0.15607 -6.41071,-0.12747 -6.71293,0.23669 -0.43394,0.52286 -0.37956,0.6651 2.71037,7.090489 1.71717,3.5708 2.53787,5.00508 2.93625,5.13152 0.30412,0.0965 2.33963,0.25857 4.52337,0.3601 6.5782,0.30586 6.36178,0.3124 6.83109,-0.2062 z m -15.97221,-0.82129 c 0.21387,-0.39961 -0.0709,-1.22082 -1.39897,-4.0349 -0.91711,-1.94324 -2.0081,-4.36661 -2.42441,-5.385249 -0.99447,-2.43331 -1.2322,-2.6782 -2.77752,-2.86122 -1.96294,-0.23248 -2.47153,-0.58498 -2.27339,-1.57566 0.0898,-0.44891 0.23177,-0.88442 0.31553,-0.96779 0.0838,-0.0834 1.75352,-0.15996 3.71058,-0.1702 4.63952,-0.0243 4.6645,-0.0446 3.68189,-2.9951 -0.392,-1.17709 -0.83668,-2.21676 -0.98818,-2.31039 -0.1515,-0.0936 -3.32705,-0.31894 -7.05679,-0.50069 -8.575396,-0.41788 -8.222776,-0.58927 -6.568386,3.19256 2.003836,4.58063 4.212656,8.833789 4.653326,8.960169 0.23396,0.0671 1.25882,0.19698 2.27746,0.28864 2.68559,0.24163 3.31646,0.53511 3.21148,1.49399 -0.11217,1.02463 -0.38396,1.25614 -1.7481,1.48902 -1.85792,0.31717 -1.90461,0.74723 -0.35615,3.2803 l 1.34569,2.20137 1.41937,0.15531 c 0.78066,0.0854 2.15933,0.17472 3.06372,0.19844 1.37027,0.0359 1.68909,-0.0405 1.91285,-0.4586 z m -10.96955,-0.80851 c 0.16229,-0.51132 -1.62693,-4.15413 -2.32234,-4.72825 -0.17571,-0.14505 -1.67616,-0.3678 -3.334336,-0.495 -2.4204,-0.18566 -3.08558,-0.16056 -3.37344,0.1273 -0.52686,0.52686 -0.47519,0.68315 0.87181,2.63707 1.85429,2.68978 1.83634,2.6755 3.49585,2.78073 4.019596,0.25488 4.489706,0.22243 4.662456,-0.32185 z m -11.274676,-1.00764 c 0.19342,-0.36141 -0.0635,-0.93276 -1.14673,-2.54981 -0.76781,-1.14621 -1.56851,-2.18056 -1.77934,-2.29855 -0.21083,-0.11798 -1.72885,-0.25049 -3.37337,-0.29446 -3.91745,-0.10473 -4.09803,0.0973 -2.2085,2.47031 1.96972,2.47375 2.24348,2.66547 4.10917,2.87769 3.09126,0.35163 4.12662,0.30334 4.39877,-0.20518 z m -11.99453,-1.68267 c 0.11901,-0.37498 -0.004,-0.79166 -0.37087,-1.25677 -0.3019,-0.3827 -1.93557,-2.75082 -3.63039,-5.262509 -2.09872,-3.11027 -3.26158,-4.60075 -3.6462,-4.67348 -0.31059,-0.0587 -2.053,-0.30799 -3.87201,-0.55391 -1.81901,-0.24592 -3.60495,-0.50166 -3.96875,-0.56831 -0.47208,-0.0865 -0.75856,0.0378 -1.00061,0.43416 -0.30687,0.50247 -0.15686,0.79993 1.57606,3.12512 3.5869,4.812829 5.55051,6.982999 6.83281,7.551569 1.35326,0.60004 5.79397,1.69191 7.05985,1.73586 0.64011,0.0222 0.88476,-0.10531 1.02011,-0.53173 z m 18.46734,-6.095829 c 0.21214,-0.33862 0.0157,-0.97421 -0.85862,-2.77812 -0.62353,-1.28648 -1.73794,-3.74992 -2.47646,-5.47432 -0.92276,-2.15454 -1.51475,-3.20325 -1.89257,-3.35262 -0.30238,-0.11954 -3.46682,-0.38162 -7.03208,-0.58241 -6.22025,-0.3503 -6.50368,-0.34526 -7.01146,0.12467 -0.52642,0.4872 -0.5226,0.50203 0.73962,2.86594 l 1.26878,2.37621 -0.74871,1.11632 c -0.57181,0.85257 -0.95888,1.14759 -1.63825,1.24862 -1.40479,0.20892 -1.56027,0.77692 -0.59623,2.1781 0.9198,1.33688 0.98129,1.35571 5.48184,1.67853 2.01705,0.14467 2.4457,0.10479 2.74461,-0.25536 0.30324,-0.3654 0.21625,-0.68938 -0.60444,-2.25117 -1.18954,-2.2637 -1.23062,-3.04796 -0.18788,-3.58719 0.74785,-0.38673 0.79347,-0.37277 1.53231,0.46872 0.41884,0.47703 1.4106,2.02092 2.20393,3.43088 0.79332,1.40996 1.62183,2.64344 1.84112,2.74108 0.47709,0.21241 4.47368,0.563911 5.92803,0.52137 0.64851,-0.019 1.13349,-0.19316 1.30646,-0.46925 z m 26.886806,-5.36753 c 0.29486,-0.3553 0.19337,-1.07946 -0.64241,-4.58372 -1.52136,-6.37873 -1.67724,-6.97824 -1.86269,-7.164 -0.0948,-0.095 -2.0837,-0.17275 -4.41965,-0.17275 -3.5456,0 -4.29015,0.0677 -4.50726,0.40961 -0.18778,0.29576 0.15834,1.76657 1.24528,5.29167 0.82794,2.68513 1.64664,5.17971 1.81935,5.54351 0.36467,0.76819 0.94671,0.88099 5.22162,1.01197 2.30792,0.0707 2.85665,0.0121 3.14576,-0.33629 z m 88.4474,-0.34495 c 0.37528,-0.4224 2.58017,-7.77471 2.99551,-9.9887 0.26585,-1.41707 -0.18422,-1.77658 -2.11835,-1.69209 -0.88187,0.0385 -1.99035,-0.0208 -2.46329,-0.13181 -0.76106,-0.17864 -0.8599,-0.3048 -0.8599,-1.09755 0,-0.6558 0.15809,-0.98031 0.59021,-1.21158 0.56712,-0.30352 1.06923,-0.35925 4.08725,-0.45364 0.75359,-0.0236 1.52749,-0.20071 1.71979,-0.39365 0.32546,-0.32654 0.84671,-2.54097 2.0221,-8.59049 0.68844,-3.54328 0.91438,-3.39207 -4.82575,-3.22955 -3.37281,0.0955 -4.73011,0.22575 -4.87954,0.4683 -0.11386,0.1848 -0.47765,2.20886 -0.80843,4.49791 -0.87137,6.03015 -1.48265,9.56338 -2.70217,15.6187 -1.35311,6.71866 -1.51924,6.34955 2.91198,6.46988 1.69136,0.0459 3.26509,0.10911 3.4972,0.1404 0.23211,0.0313 0.60713,-0.15147 0.83339,-0.40613 z m -11.63919,-0.52917 c 0.65342,-0.73105 3.73772,-17.03637 4.57488,-24.18535 0.16064,-1.37184 0.1256,-1.52395 -0.41807,-1.81492 -0.44719,-0.23933 -2.65416,-0.27206 -8.95717,-0.13287 l -8.36377,0.18471 -0.94624,-1.015624 -0.94625,-1.01563 0.19145,-3.175 c 0.22847,-3.788677 0.086,-4.109756 -1.77459,-4.000153 -0.64537,0.03802 -1.33586,0.239231 -1.53442,0.447138 -0.24466,0.256185 -0.41304,1.440767 -0.52246,3.675504 -0.15946,3.25691 -0.17182,3.308191 -1.00439,4.167185 l -0.84294,0.8697 h -6.48982 -6.48981 l -0.8749,-0.983413 -0.8749,-0.983414 0.0263,-6.310029 c 0.0188,-4.524507 -0.0629,-6.417405 -0.2887,-6.689502 -0.20162,-0.242922 -0.82359,-0.379474 -1.72845,-0.379474 -1.99209,0 -2.02855,0.113676 -1.85147,5.771531 0.0805,2.573732 0.22158,8.422433 0.31338,12.997111 0.12714,6.33525 0.24974,8.40043 0.51442,8.66511 0.27627,0.27626 2.70016,0.3475 11.82387,0.3475 h 11.47638 l 0.86436,0.8918 0.86437,0.8918 -0.40239,3.67226 c -0.22131,2.01975 -0.47807,4.51676 -0.57056,5.54892 -0.24358,2.71818 -0.18633,2.75455 4.32786,2.7495 1.99051,-0.002 3.76655,-0.0977 3.94675,-0.21214 0.36094,-0.22924 0.51418,-0.93985 1.66512,-7.72131 0.4322,-2.54661 0.92437,-4.97003 1.0937,-5.38537 0.27565,-0.67614 0.40365,-0.73962 1.22318,-0.60663 0.50342,0.0817 0.96411,0.19735 1.02377,0.257 0.31411,0.31411 0.0634,3.00973 -0.72308,7.77346 -0.73534,4.45424 -0.82162,5.39041 -0.52924,5.74271 0.46408,0.55917 1.68734,0.5358 2.20388,-0.0421 z m -17.60025,-0.39687 c 0.14238,-0.1819 0.4724,-2.3807 0.73336,-4.88622 0.38529,-3.69915 0.41123,-4.63171 0.138,-4.96094 -0.28709,-0.34592 -1.38723,-0.40545 -7.49315,-0.40545 -6.28806,0 -7.2154,0.0532 -7.64053,0.43789 -0.43154,0.39054 -0.48385,0.91031 -0.48385,4.80781 0,3.69497 0.0676,4.44466 0.43788,4.85378 0.4026,0.44486 0.98635,0.48386 7.24365,0.48386 5.13015,0 6.8695,-0.0814 7.06464,-0.33073 z M 77.729724,91.118321 c 0.22101,-0.35265 -0.11739,-1.26922 -1.61179,-4.36563 -2.34542,-4.85973 -2.91159,-6.1492 -4.74133,-10.79843 -0.80179,-2.03729 -1.53707,-3.78346 -1.63394,-3.88038 -0.0969,-0.0969 -0.61585,-0.24402 -1.15326,-0.32689 -0.97036,-0.14964 -1.80101,0.2875 -1.80101,0.94779 0,1.33688 7.68918,16.82455 9.20994,18.55082 0.49476,0.56162 1.33851,0.49959 1.73139,-0.12728 z m -6.45183,-0.72854 c 0.22541,-0.42117 -0.18229,-1.42273 -2.26894,-5.57393 -1.78498,-3.55104 -2.71256,-5.12207 -3.10974,-5.2669 -0.31132,-0.11352 -2.12313,-0.35161 -4.02625,-0.52908 -1.90312,-0.17748 -3.92718,-0.42887 -4.49791,-0.55865 -0.85771,-0.19504 -1.12226,-0.15204 -1.52524,0.24791 -0.58274,0.57836 -0.66373,0.38916 2.54069,5.93495 1.46586,2.53692 2.36936,3.81658 2.93946,4.16328 0.81967,0.49847 2.86176,1.02662 6.55827,1.69618 2.69256,0.48772 3.07463,0.47489 3.38966,-0.11376 z m 96.609546,-3.6216 c 0.41782,-0.50344 0.3584,-3.4689 -0.0801,-3.99725 -0.2015,-0.2428 -1.38668,-0.33438 -4.32725,-0.33438 -4.85108,0 -4.9176,0.0328 -4.69406,2.31491 0.082,0.83685 0.26187,1.66473 0.39977,1.83974 0.26728,0.3392 1.7038,0.47744 5.79674,0.55783 2.07287,0.0407 2.61389,-0.0302 2.90489,-0.38085 z m -24.64941,-0.21258 c 0.43411,-0.52307 0.17495,-3.27762 -0.35863,-3.81184 -0.21461,-0.21486 -1.16922,-0.39339 -2.42612,-0.45373 -2.22852,-0.10698 -3.3638,-0.64257 -3.79309,-1.78946 -0.11891,-0.31765 -0.54958,-3.31599 -0.95706,-6.66297 -0.49854,-4.09493 -0.86961,-6.23687 -1.13444,-6.54844 -0.47528,-0.55916 -2.11253,-0.61991 -2.81734,-0.10453 -0.45896,0.3356 -0.46941,0.51721 -0.16361,2.84427 0.65392,4.97616 2.5908,16.10046 2.85107,16.37492 0.1685,0.17769 2.57403,0.38003 5.78673,0.48676 2.19096,0.0728 2.72319,0.0136 3.01249,-0.33498 z m 12.45389,-0.0222 c 0.38642,-0.46561 0.16295,-3.18051 -0.30855,-3.74863 -0.19147,-0.23072 -0.96972,-0.35077 -2.30707,-0.35591 -1.87301,-0.007 -2.08177,-0.0656 -2.90331,-0.81263 -0.98375,-0.89448 -0.9235,-0.52302 -1.62327,-10.0076 -0.15487,-2.09909 -0.41254,-3.97433 -0.5726,-4.16719 -0.39847,-0.48013 -2.71744,-0.4589 -3.12201,0.0286 -0.35693,0.43007 -0.30128,1.24498 0.67875,9.93951 0.35266,3.1287 0.71605,6.3826 0.80754,7.23089 0.0915,0.84828 0.33549,1.71148 0.54223,1.91822 0.56671,0.56671 8.33549,0.54445 8.80829,-0.0252 z m -43.66313,-1.57921 c 0.2633,-0.31726 0.12213,-1.1699 -0.73378,-4.43177 -1.13225,-4.31506 -1.85995,-7.436 -2.57655,-11.0504 -0.24524,-1.23693 -0.56706,-2.39778 -0.71517,-2.57969 -0.1481,-0.1819 -0.83543,-0.33072 -1.5274,-0.33072 -2.02832,0 -2.08374,0.2277 -1.06524,4.37694 l 0.87317,3.55724 -0.70147,1.05999 -0.70147,1.05999 h -3.04283 -3.042846 l -0.91577,-0.85989 c -0.75881,-0.7125 -1.05083,-1.3361 -1.70362,-3.63803 -0.43331,-1.52796 -0.91749,-3.36401 -1.07596,-4.08009 -0.15847,-0.71609 -0.49142,-1.45645 -0.73989,-1.64524 -0.67113,-0.509918 -9.13119,-0.503878 -9.55503,0.007 -0.35063,0.42248 0.26349,2.76144 2.25725,8.59711 l 1.20946,3.54006 -0.76927,1.09015 c -0.88346,1.25194 -0.55534,1.20778 -6.47602,0.87163 -3.48096,-0.19764 -3.63261,-0.18471 -3.9099,0.33342 -0.22722,0.42456 -0.17202,0.76732 0.25993,1.61402 0.30163,0.59124 0.69187,1.12357 0.8672,1.18294 0.17532,0.0594 3.45765,0.30373 7.29404,0.54301 8.45017,0.52705 8.17737,0.61069 7.21629,-2.21231 -0.77338,-2.27165 -0.68887,-3.23333 0.32672,-3.71794 0.71606,-0.34168 0.79571,-0.31888 1.37954,0.39492 0.34079,0.41665 0.62389,0.87932 0.62912,1.02816 0.018,0.51222 1.62844,4.49229 1.94325,4.80261 0.33223,0.32749 6.478656,0.76753 11.726056,0.83951 2.31724,0.0318 3.01359,-0.0433 3.27019,-0.35245 z m 30.54574,-6.19427 c 0.2791,-0.45159 -0.95329,-10.99062 -1.33202,-11.39101 -0.55147,-0.58301 -2.36315,-0.58944 -2.88731,-0.0102 -0.38609,0.42663 -0.40141,0.77222 -0.13663,3.08287 0.4139,3.61186 1.10039,8.40153 1.22267,8.53053 0.0559,0.059 0.54952,0.18721 1.09683,0.28485 0.96544,0.17225 1.73962,-0.0167 2.03646,-0.49698 z m 18.94083,0.362 c 0.26207,-0.31577 0.29854,-1.95219 0.1666,-7.47448 -0.0929,-3.88862 -0.24359,-11.594585 -0.33484,-17.124377 -0.13429,-8.137445 -0.23732,-10.129826 -0.54049,-10.451041 -0.3165,-0.335351 -1.66455,-0.400733 -8.69587,-0.421754 -9.83298,-0.0294 -9.2683,-0.204816 -8.97343,2.787592 0.1399,1.419841 0.30379,1.949569 0.66254,2.141567 0.26451,0.141565 3.06729,0.255095 6.29765,0.255095 3.20155,0 6.12641,0.116115 6.49969,0.258035 0.54629,0.2077 0.67868,0.434903 0.67868,1.164741 0,0.779123 -0.11725,0.947581 -0.83323,1.197173 -0.45828,0.159758 -1.87245,0.290467 -3.14261,0.290467 -1.74797,0 -2.39087,0.0982 -2.64462,0.40395 -0.37143,0.447554 -0.34211,1.276446 0.5426,15.338762 0.6285,9.98982 0.75438,11.17517 1.23809,11.65889 0.57343,0.57342 8.60098,0.55165 9.07924,-0.0246 z m -44.91433,-0.58792 c 0.38226,-0.42387 0.32713,-0.92163 -0.65197,-5.88698 -0.58825,-2.98318 -1.189,-5.57278 -1.335,-5.75469 -0.40907,-0.50965 -2.42363,-0.415 -2.92351,0.13735 -0.3895,0.4304 -0.37163,0.71255 0.22212,3.50573 1.0797,5.07919 1.74044,7.51274 2.17172,7.99859 0.2293,0.25831 0.78418,0.46302 1.25504,0.46302 0.46838,0 1.02988,-0.20608 1.2616,-0.46302 z m 108.75202,-0.007 c 0.23974,-0.26491 0.94647,-2.77612 1.61719,-5.74635 1.1142,-4.93412 1.16301,-5.30713 0.7536,-5.75952 -0.32681,-0.36112 -0.74092,-0.46383 -1.63379,-0.40521 -0.97437,0.064 -1.25476,0.20109 -1.51303,0.73997 -0.59775,1.24721 -2.21898,10.60813 -1.93057,11.14703 0.3551,0.66352 2.11375,0.67917 2.7066,0.0241 z m 6.62677,-0.38933 c 0.20252,-0.32743 0.92856,-2.8978 1.61342,-5.71195 1.12564,-4.62531 1.20629,-5.15964 0.83997,-5.56443 -0.47994,-0.53032 -2.44373,-0.51739 -2.97029,0.0195 -0.18487,0.18852 -0.81737,2.58292 -1.40556,5.32091 -0.5882,2.73799 -1.13525,5.08463 -1.21567,5.21476 -0.0804,0.13013 0.005,0.47957 0.19096,0.77653 0.49977,0.80025 2.44049,0.76378 2.94717,-0.0554 z m 6.31914,-0.1323 c 0.22395,-0.25466 0.95453,-2.42755 1.62351,-4.82864 1.55516,-5.58177 1.63289,-5.99241 1.22688,-6.48164 -0.47171,-0.568369 -2.45737,-0.524364 -2.95497,0.0655 -0.21482,0.25466 -0.95936,2.81797 -1.65453,5.69623 -1.01471,4.20134 -1.20023,5.30994 -0.94092,5.62239 0.4539,0.54692 2.19604,0.49929 2.70003,-0.0738 z M 84.244344,77.157681 c 0.21322,-0.3984 0.0899,-1.07907 -0.53785,-2.96853 -1.93104,-5.81227 -3.29062,-10.945434 -4.75075,-17.936746 -0.68382,-3.274224 -1.16122,-4.988722 -1.44736,-5.197951 -0.67824,-0.495943 -9.75191,-0.49933 -10.16317,-0.0038 -0.59495,0.71687 2.51631,12.256738 5.57306,20.670817 1.48415,4.08532 1.90595,5.02282 2.40105,5.33666 0.3411,0.21622 3.71078,0.49752 6.87174,0.57367 1.5174,0.0365 1.817,-0.0326 2.05328,-0.47413 z m -20.01911,-1.28033 c 0.39794,-0.43971 0.37885,-0.59907 -0.26149,-2.18281 -1.86944,-4.62365 -3.52535,-9.595717 -3.52535,-10.585272 0,-0.611343 0.16142,-0.792731 0.93166,-1.046935 0.8492,-0.28026 0.97662,-0.252801 1.43954,0.310211 0.27934,0.339728 0.82254,1.629717 1.20712,2.866644 0.97584,3.138612 1.2045,3.439582 2.6131,3.439582 1.87889,0 1.9456,-0.30435 0.854,-3.896428 -0.93781,-3.086017 -2.87587,-10.70526 -3.18664,-12.527917 -0.31224,-1.831199 -0.0959,-1.772959 -7.82753,-2.107128 -3.8563,-0.166672 -7.93703,-0.38753 -9.06828,-0.490794 -1.78232,-0.162698 -2.11343,-0.125204 -2.48099,0.280937 -0.39151,0.432618 -0.34921,0.718804 0.54956,3.718033 1.86186,6.213084 7.26305,20.493357 7.90363,20.896497 0.52316,0.32924 3.83706,1.00086 6.80025,1.37819 3.75695,0.47841 3.56845,0.48087 4.05142,-0.0528 z m 38.267086,-2.55051 c 0.24681,-0.29738 0.1429,-1.1619 -0.48244,-4.01418 -0.78116,-3.563019 -0.78733,-3.648715 -0.31071,-4.317344 1.10456,-1.549521 0.72103,-1.498695 9.9361,-1.31681 7.58108,0.149633 8.5137,0.122378 8.9164,-0.260583 0.41423,-0.393919 0.42072,-0.647073 0.0822,-3.205818 -0.20217,-1.527969 -0.48825,-3.958897 -0.63573,-5.402064 -0.15052,-1.472896 -0.41869,-2.766385 -0.61132,-2.948662 -0.25185,-0.23831 -2.94831,-0.367207 -10.13276,-0.484365 -5.38427,-0.0878 -13.779216,-0.236458 -18.655446,-0.330345 -8.09503,-0.155864 -8.89782,-0.132197 -9.23345,0.2722 -0.31709,0.382082 -0.25234,0.995892 0.47154,4.469633 1.26607,6.075534 1.4359,6.629437 2.14057,6.98151 0.37444,0.187087 2.24628,0.331882 4.74549,0.367093 2.26992,0.03198 4.54385,0.09215 5.05318,0.133707 0.50932,0.04156 1.16416,0.08532 1.4552,0.09724 0.29105,0.01193 0.86015,0.288978 1.26467,0.615677 0.61311,0.49516 0.88423,1.166323 1.62936,4.033581 0.95234,3.66457 1.33291,4.80575 1.78388,5.34914 0.381006,0.45909 2.192476,0.43131 2.583306,-0.0396 z m 186.06786,-4.57835 c 0.24631,-0.21386 0.74819,-1.16602 1.11529,-2.11592 0.51898,-1.342918 0.60481,-1.844139 0.38583,-2.253299 -0.25601,-0.478375 -0.45359,-0.509659 -2.17362,-0.344165 -1.0406,0.100124 -2.04949,0.335619 -2.24198,0.52332 -0.19248,0.1877 -0.6381,1.135046 -0.99025,2.105214 -0.52217,1.43856 -0.58181,1.85754 -0.32336,2.27139 0.27762,0.44455 0.53154,0.48854 2.04858,0.35487 0.95242,-0.0839 1.9332,-0.32756 2.17951,-0.54141 z m -140.98234,-5.05228 c 0.42492,-0.469527 0.43665,-0.904253 0.15919,-5.898353 -0.18548,-3.338478 -0.41618,-5.510035 -0.60586,-5.702837 -0.2203,-0.223933 -3.5765,-0.360516 -11.95198,-0.486392 -11.09282,-0.166716 -11.66638,-0.151937 -12.08238,0.311367 -0.40616,0.452348 -0.40197,0.791946 0.06,4.852017 0.59605,5.238863 0.73399,6.10925 1.04922,6.619996 0.24833,0.40237 0.017,0.393279 18.66495,0.733565 3.90593,0.07128 4.28514,0.03668 4.7069,-0.429363 z m 33.79742,0.06041 c 0.36487,-0.439645 0.53239,-3.793109 0.87759,-17.567938 0.33231,-13.260438 0.28935,-20.392559 -0.12439,-20.654385 -0.20824,-0.131776 -4.28165,-0.241419 -9.05202,-0.243647 -7.68734,-0.0036 -8.69177,0.04379 -8.83489,0.416766 -0.17193,0.448038 -0.20955,4.853863 -0.1335,15.633721 0.0399,5.660763 0.10948,6.724308 0.46278,7.077604 0.31139,0.311393 0.96881,0.415774 2.61862,0.415774 2.02035,0 2.27087,0.05968 3.02381,0.720376 l 0.82096,0.720378 v 6.468684 c 0,5.647885 0.0556,6.53008 0.43788,6.952541 0.39193,0.43307 0.91615,0.483854 4.99469,0.483854 3.85606,0 4.61088,-0.06516 4.90847,-0.423728 z m 40.1322,0.01508 c 0.54928,-0.175532 0.76237,-1.077007 1.51644,-6.415243 0.5832,-4.128598 0.65626,-5.167839 0.38618,-5.493258 -0.28682,-0.345604 -1.60005,-0.397327 -9.45434,-0.372377 l -9.12125,0.02897 -0.90544,-0.87758 -0.90543,-0.877581 0.15321,-1.986414 c 0.0843,-1.092529 0.26475,-4.421122 0.40106,-7.396872 l 0.24784,-5.410454 0.73601,-0.723193 0.73602,-0.723194 10.45104,-0.179824 10.45104,-0.179826 0.89864,0.94208 0.89863,0.942078 -0.14218,2.074386 c -0.18318,2.672538 0.021,2.979862 1.97971,2.979862 0.87682,0 1.57406,-0.137694 1.74594,-0.344799 0.53882,-0.649238 1.21523,-13.404011 0.74993,-14.141138 -0.16392,-0.25968 -4.37897,-0.330729 -19.62113,-0.330729 -17.29482,0 -19.45772,0.04535 -19.82814,0.415774 -0.35318,0.353179 -0.41661,1.319107 -0.42135,6.416146 -0.006,6.530755 -0.0784,8.888481 -0.68682,22.39388 -0.37125,8.240503 -0.36954,9.010956 0.0206,9.296254 0.31858,0.23295 4.06138,0.280808 14.90224,0.190545 7.96225,-0.06629 14.62743,-0.168667 14.81151,-0.227497 z m 13.8893,-0.583541 c 0.58804,-0.655471 2.25316,-10.793526 1.87227,-11.399281 -0.21667,-0.344575 -0.77318,-0.457465 -2.54885,-0.517044 l -2.27167,-0.07622 -0.79063,-1.075089 c -0.43485,-0.591299 -0.73869,-1.211845 -0.67521,-1.378987 0.0635,-0.167143 0.21723,-1.315929 0.34165,-2.552856 0.30343,-3.016555 0.16586,-3.175 -2.75683,-3.175 -2.17953,0 -2.18093,-5.29e-4 -3.03204,-0.969812 -0.84941,-0.967425 -0.85106,-0.974963 -0.66874,-3.06497 0.16118,-1.847805 0.12572,-2.138392 -0.30039,-2.461358 -0.38612,-0.292658 -2.08696,-0.367887 -8.46956,-0.374613 -4.51156,-0.0048 -8.2785,0.102635 -8.65772,0.246811 -0.85205,0.323951 -0.88784,0.523637 -1.09185,6.091227 -0.0932,2.544662 -0.22558,4.717343 -0.29408,4.82818 -0.0685,0.110837 0.0532,0.455345 0.27053,0.765575 0.39155,0.559014 0.47745,0.56361 9.61605,0.514339 l 9.22097,-0.04971 0.81708,1.016746 0.81708,1.016749 -0.63299,4.885523 c -0.34815,2.687037 -0.70671,5.448956 -0.79681,6.137595 -0.26566,2.030513 -0.20484,2.05522 5.05955,2.05522 4.00518,0 4.60709,-0.05605 4.97219,-0.463021 z m 6.90983,-0.396875 c 0.5207,-0.823878 2.13926,-9.994889 1.91891,-10.872829 -0.16326,-0.650499 -0.28103,-0.702691 -1.58552,-0.702691 -1.01711,0 -1.51766,0.12882 -1.79914,0.463021 -0.22879,0.271653 -0.74684,2.628042 -1.25341,5.701334 -0.98769,5.992148 -0.98517,6.006478 1.0585,6.006478 1.04413,0 1.35481,-0.111374 1.66066,-0.595313 z m 6.75597,-0.03754 c 0.74062,-0.892394 3.16486,-14.69151 4.00794,-22.813816 0.39073,-3.764335 0.24713,-4.120208 -1.62811,-4.034641 -2.04957,0.09352 -2.27907,0.37693 -2.48742,3.071764 -0.30059,3.888084 -1.42968,12.384815 -2.27677,17.133506 -1.1541,6.469684 -1.14016,6.335816 -0.70509,6.770886 0.4552,0.4552 2.68208,0.363154 3.08945,-0.127699 z m 40.84526,-1.885063 c 0.84023,-0.104979 1.64825,-0.373158 1.86664,-0.619533 0.37683,-0.425114 1.42297,-3.639756 2.54542,-7.821739 0.50994,-1.899888 0.52387,-2.134256 0.14914,-2.50898 -0.54969,-0.549688 -4.02719,-0.432366 -4.68807,0.15816 -0.24644,0.220202 -0.63944,1.251207 -0.87334,2.291125 -0.2339,1.039918 -0.77641,3.113632 -1.20558,4.608253 -0.42917,1.494621 -0.78031,2.94722 -0.78031,3.227999 0,0.543922 0.73452,1.118576 1.21529,0.95078 0.15908,-0.05553 0.95595,-0.184253 1.77081,-0.286065 z m -101.34245,-6.14719 c 0.34791,-0.387927 0.46516,-2.007815 0.72297,-9.988021 0.16925,-5.238749 0.26873,-11.727655 0.22107,-14.419791 l -0.0867,-4.894791 -1.71979,-0.07529 c -1.47586,-0.06461 -1.76573,-0.0011 -2.04367,0.44845 -0.23355,0.37769 -0.3368,2.72279 -0.37026,8.409662 -0.0255,4.337257 -0.1179,10.611144 -0.2053,13.94197 -0.18456,7.03417 -0.18286,7.040827 1.79948,7.040827 0.87199,0 1.39634,-0.144328 1.68215,-0.463021 z m -48.6847,-6.35 c 0.3673,-0.410906 0.38395,-1.192617 0.14795,-6.945312 -0.30747,-7.494646 -0.23829,-7.9375 1.23998,-7.9375 1.22753,0 1.4552,0.59513 1.4552,3.803793 0,3.79685 -0.68682,3.538982 9.329,3.502525 6.83586,-0.02487 8.39903,-0.09845 8.77813,-0.413123 0.42508,-0.352843 0.44886,-0.940859 0.30336,-7.502681 -0.0868,-3.91591 -0.22361,-7.226204 -0.30396,-7.356215 -0.084,-0.135851 -9.92102,-0.236382 -23.13032,-0.236382 -20.22412,0 -23.03259,0.04835 -23.38688,0.402648 -0.43889,0.438889 -0.42449,1.893126 0.1113,11.239018 0.43291,7.551253 0.77799,10.660893 1.2402,11.175772 0.37781,0.420868 1.35284,0.466297 11.42102,0.532152 6.05437,0.0396 11.31692,0.100422 11.69454,0.135162 0.38734,0.03563 0.867,-0.13865 1.10048,-0.399857 z m -28.01464,-0.202414 c 0.5145,-0.514504 0.51067,-0.02863 0.0438,-5.552273 -0.20908,-2.473854 -0.45335,-6.343385 -0.54282,-8.598958 -0.0895,-2.255573 -0.20025,-4.964573 -0.24617,-6.019998 -0.0459,-1.055428 -0.23142,-2.097225 -0.41225,-2.315104 -0.28527,-0.343731 -2.42375,-0.396148 -16.162056,-0.396148 -14.81094,0 -15.84889,0.0299 -16.07481,0.463021 -0.65308,1.252085 1.25879,21.071112 2.11307,21.904832 0.28009,0.273336 2.99938,0.397632 12.39732,0.566663 6.6212,0.119089 13.481836,0.253006 15.245866,0.297591 2.68357,0.06783 3.27766,0.01074 3.63802,-0.349626 z m 132.9705,-0.240805 c 0.31893,-0.384286 0.80522,-4.007332 1.33438,-9.941676 0.28557,-3.202586 0.32077,-3.330327 1.11183,-4.034896 0.79985,-0.712393 0.88694,-0.727604 4.16558,-0.727604 h 3.34864 l 1.16851,1.190625 c 1.08441,1.104937 1.26632,1.190625 2.52762,1.190625 1.9637,0 2.15864,-0.317307 2.357,-3.836458 0.0902,-1.60073 0.22005,-3.481301 0.2885,-4.179049 0.24417,-2.48875 1.27882,-2.303243 -12.84604,-2.303243 -12.00534,0 -12.42587,0.01696 -12.69069,0.511773 -0.15064,0.281475 -0.27492,1.680459 -0.27619,3.108854 -0.003,2.914695 -0.64251,12.737692 -1.06305,16.317632 -0.20428,1.739016 -0.1964,2.438516 0.0306,2.711979 0.45279,0.545576 10.08996,0.537749 10.54336,-0.0086 z m 26.60706,-0.284168 c 6.39702,-0.138478 8.02026,-0.246565 8.36393,-0.556935 1.03092,-0.931026 3.3711,-20.494201 2.56738,-21.46261 -0.21722,-0.261747 -2.22727,-0.33705 -8.91318,-0.333912 -4.7602,0.0021 -8.80444,0.112702 -9.01554,0.246256 -0.28956,0.183187 -0.43235,1.197575 -0.58605,4.163136 -0.24127,4.655166 -0.89254,11.410714 -1.43384,14.873036 -0.35347,2.260983 -0.34988,2.528178 0.0397,2.958719 0.23557,0.260305 0.56595,0.430723 0.73418,0.378708 0.16823,-0.05201 3.87775,-0.171892 8.24337,-0.266398 z M 77.110074,47.241544 c 0.15737,-0.294047 0.23055,-0.624565 0.16261,-0.734483 -0.1311,-0.212135 -0.75974,-4.846286 -1.23242,-9.085143 -0.15634,-1.40198 -0.37576,-4.51939 -0.48761,-6.927578 -0.13646,-2.938078 -0.31656,-4.514918 -0.54745,-4.79313 -0.29963,-0.361027 -1.46717,-0.414613 -9.03364,-0.414613 -8.00589,0 -8.70885,0.03643 -8.93493,0.463021 -0.71399,1.347285 1.5063,20.161606 2.51019,21.270898 0.45903,0.50722 0.89626,0.530675 12.98695,0.696738 4.06561,0.05584 4.30515,0.03094 4.5763,-0.47571 z m -21.36115,-0.458208 c 0.37439,-0.4137 0.38026,-0.67025 0.0545,-2.380128 -0.53974,-2.83265 -1.38744,-9.963687 -1.72133,-14.480193 -0.16111,-2.179399 -0.41877,-4.114165 -0.57257,-4.299479 -0.38864,-0.468286 -11.60126,-0.486346 -12.06817,-0.01944 -0.45419,0.454192 -0.39408,2.714249 0.2161,8.12482 0.66129,5.863716 1.72729,11.926373 2.17354,12.361552 0.29092,0.283699 2.97772,0.579416 8.93453,0.983356 0.65484,0.04441 1.49959,0.101539 1.87722,0.126963 0.37763,0.02543 0.87543,-0.162431 1.10622,-0.417452 z m 231.224136,-0.01101 c 0.35653,-0.356528 1.35016,-5.666713 1.81725,-9.711779 0.32508,-2.815156 0.36664,-2.938561 1.26982,-3.770313 l 0.93374,-0.859895 h 2.9617 c 3.9594,0 4.00314,-0.03719 4.28267,-3.640966 0.11583,-1.493205 0.11139,-2.892189 -0.01,-3.108854 -0.31017,-0.554241 -11.86713,-0.589415 -12.41875,-0.0378 -0.21813,0.218131 -0.38451,1.115251 -0.42938,2.315104 -0.11268,3.013591 -1.03121,11.530613 -1.62527,15.070135 -0.67117,3.998968 -0.55453,4.317129 1.52241,4.152508 0.7691,-0.06096 1.53216,-0.244626 1.69568,-0.408144 z m 8.61116,-0.666099 c 0.19552,-0.195524 0.72089,-2.532411 1.16749,-5.193085 0.79686,-4.747485 0.80265,-4.846918 0.31082,-5.338749 -0.44032,-0.440322 -0.75167,-0.479989 -2.56463,-0.326737 -1.13491,0.09593 -2.20884,0.319799 -2.38651,0.497478 -0.17768,0.177678 -0.4684,1.439301 -0.64604,2.803607 -0.17764,1.364305 -0.50831,3.587906 -0.73481,4.941331 -0.5446,3.254161 -0.46799,3.35462 2.39009,3.13422 1.20775,-0.09314 2.25992,-0.314394 2.46359,-0.518065 z m -36.18806,-2.155798 c 0.15369,-0.185182 0.40266,-1.319451 0.55327,-2.520598 0.34901,-2.783412 0.10402,-3.165885 -1.93382,-3.019079 -0.74963,0.05401 -1.50342,0.248553 -1.67508,0.43233 -0.17166,0.183774 -0.4406,1.346168 -0.59763,2.583095 -0.2584,2.035331 -0.24111,2.286751 0.18195,2.646823 0.56387,0.479901 3.04398,0.392329 3.47131,-0.122571 z M 60.914644,22.058681 c 0.19865,-0.198647 0.3175,-1.185617 0.3175,-2.636525 0,-2.021962 -0.0656,-2.354109 -0.51177,-2.592917 -0.32094,-0.17176 -3.54431,-0.273891 -8.64427,-0.273891 -9.67406,0 -9.10021,-0.184923 -9.10021,2.932525 0,1.517004 0.10912,2.165871 0.41578,2.472534 0.3605,0.360505 1.53172,0.415774 8.81062,0.415774 6.17655,0 8.47875,-0.0839 8.71235,-0.3175 z m 34.13125,0 c 0.42881,-0.428808 0.42881,-4.757026 0,-5.185833 -0.23942,-0.239419 -3.97717,-0.3175 -15.19854,-0.3175 h -14.88103 l -0.41188,0.588039 c -0.27685,0.395255 -0.41188,1.190773 -0.41188,2.426562 0,3.070908 -1.48369,2.806232 15.7308,2.806232 11.20114,0 14.93313,-0.07809 15.17253,-0.3175 z m 58.571136,-0.120383 c 0.70304,-0.636238 0.70439,-4.30761 0.002,-4.943425 -0.44122,-0.399298 -2.77116,-0.436091 -27.5128,-0.434469 l -27.030766,0.0018 -0.40199,0.613516 c -0.53789,0.820928 -0.48495,4.086328 0.0768,4.737467 0.37558,0.435335 2.013346,0.463021 27.391266,0.463021 24.74485,0 27.03207,-0.03645 27.47565,-0.437883 z m 65.51844,0.120383 c 0.42881,-0.428808 0.42881,-4.757026 0,-5.185833 -0.47529,-0.475287 -61.41235,-0.45951 -61.80699,0.01601 -0.43334,0.522144 -0.49191,4.561107 -0.0735,5.065315 0.31691,0.381847 3.26341,0.422016 30.9566,0.422016 23.45216,0 30.68056,-0.07422 30.92385,-0.3175 z m 26.45833,0 c 0.19772,-0.197721 0.3175,-1.175925 0.3175,-2.592917 0,-1.416992 -0.11978,-2.395196 -0.3175,-2.592916 -0.23673,-0.236736 -3.10863,-0.3175 -11.2901,-0.3175 -12.88265,0 -11.94031,-0.226063 -11.94031,2.864445 0,3.20417 -0.9969,2.956388 11.89434,2.956388 8.21722,0 11.09929,-0.08072 11.33607,-0.3175 z m 29.73156,-0.120383 c 0.387,-0.350226 0.48386,-0.83598 0.48386,-2.426562 0,-3.226258 1.24275,-2.956388 -13.61414,-2.956388 -9.55484,0 -12.81771,0.07935 -13.05586,0.3175 -0.19772,0.19772 -0.3175,1.175924 -0.3175,2.592916 0,1.416992 0.11978,2.395196 0.3175,2.592917 0.23812,0.238119 3.49081,0.3175 13.00989,0.3175 11.43911,0 12.74017,-0.04324 13.17625,-0.437883 z m 20.6375,0 c 0.387,-0.350226 0.48386,-0.83598 0.48386,-2.426562 0,-3.147433 0.57835,-2.956388 -8.94987,-2.956388 -9.58558,0 -9.0418,-0.172271 -9.0418,2.864445 0,3.147433 -0.57835,2.956388 8.94986,2.956388 7.14174,0 8.12997,-0.05056 8.55795,-0.437883 z m -42.11137,-8.82755 c 0.15994,-0.298863 0.16128,-1.912186 0.004,-4.3993941 l -0.24892,-3.927469 0.83465,-0.861145 c 0.81569,-0.841576 0.88684,-0.861142 3.1316,-0.861142 1.6449,0 2.38413,-0.105045 2.60405,-0.37003 0.44052,-0.530797 0.0786,-3.734864 -0.47638,-4.217358 -0.35053,-0.304739 -2.93133,-0.397894 -14.35116,-0.517993 -10.13435,-0.106582 -14.00476,-0.06545 -14.22135,0.15114 -0.16367,0.163666 -0.29758,1.08874701 -0.29758,2.05573301 0,2.57720099 0.008,2.58113199 5.28035,2.66118999 l 4.35432,0.06611 0.89931,0.824156 0.8993,0.824153 0.13855,4.090093 c 0.0762,2.2495511 0.24493,4.2958361 0.37497,4.5472991 0.20913,0.404423 0.80844,0.465513 5.19117,0.529166 2.72511,0.03958 5.10687,0.02819 5.29282,-0.02532 0.18594,-0.0535 0.45173,-0.309639 0.59065,-0.5692 z m 44.1869,0.08983 c 0.4004,-0.425672 0.4257,-0.78939 0.21755,-3.127523 -0.3148,-3.5361301 -0.28076,-3.5101791 -4.64937,-3.5434271 -1.85766,-0.01413 -4.88908,-0.102288 -6.73648,-0.195887 -3.23729,-0.164015 -3.38477,-0.197154 -4.07261,-0.915104 -0.64678,-0.675092 -0.76021,-1.111935 -1.20999,-4.65983799 -0.69779,-5.50431501 -1.25268,-8.33741801 -1.73841,-8.87584701 -0.58405,-0.647404 -2.74268,-0.636323 -3.33403,0.01712 -0.39365,0.434975 -0.39927,0.665165 -0.0598,2.447396 0.20611,1.081995 0.58377,3.788452 0.83924,6.01435401 l 0.46449,4.04709299 -0.84778,0.847699 -0.84778,0.847698 -9.45368,-0.08947 c -8.94864,-0.08469 -9.46901,-0.06348 -9.7405,0.396875 -0.46127,0.782185 -0.0898,6.6655471 0.4455,7.0564401 0.31531,0.230232 5.50535,0.296958 20.3469,0.261591 18.89217,-0.04502 19.94708,-0.07241 20.37671,-0.529167 z m -230.235676,0.10051 c 0.15695,-0.189111 0.41475,-2.183408 0.57288,-4.4317711 0.39266,-5.582964 0.94931,-10.978109 1.45671,-14.118639 0.55991,-3.465539 0.6265,-3.401285 -3.48043,-3.358396 -3.88514,0.04057 -7.70749,0.212767 -15.69855,0.707212 -5.45014,0.337228 -6.27517,0.446421 -6.71786,0.889109 -0.76813,0.768133 -1.99521,8.672742 -2.91072,18.7503221 -0.18255,2.009473 -0.91972,1.906005 13.57932,1.906005 10.27048,0 12.97169,-0.07037 13.19865,-0.343842 z m 21.47146,-0.04845 c 0.19902,-0.239805 0.37302,-1.602502 0.44762,-3.5057291 0.0671,-1.712388 0.2847,-4.899375 0.48351,-7.082187 0.29421,-3.23047899 0.29828,-4.033339 0.0219,-4.315962 -0.18678,-0.190965 -1.29664,-0.678606 -2.46635,-1.08364 -3.38583,-1.172406 -6.28642,-2.900154 -8.80158,-5.242696 -0.87796,-0.817707 -1.03152,-0.862604 -2.95766,-0.864782 -1.42034,-0.0016 -2.14655,0.112628 -2.41357,0.379656 -0.91947,0.919467 -2.95648,20.3549771 -2.26817,21.6410901 0.23074,0.431128 0.90927,0.466543 8.93923,0.466543 7.35614,0 8.7395,-0.0602 9.01512,-0.392293 z m 42.857566,0.0059 c 0.36048,-0.43435 0.45118,-1.79937 0.66001,-9.9324001 0.0803,-3.12869799 0.22138,-7.013302 0.31344,-8.632454 0.0921,-1.619152 0.089,-3.256262 -0.007,-3.638021 l -0.17422,-0.694119 h -5.31465 -5.31465 l -2.87135,1.730023 c -7.23855,4.361318 -13.98732,6.441104 -21.546556,6.64006 -3.15289,0.08298 -4.03045,0.187037 -4.26891,0.50616701 -0.52347,0.70055 -1.27516,13.10590509 -0.84493,13.94406309 0.22308,0.434602 1.42866,0.46302 19.642836,0.46302 16.69133,0 19.45001,-0.05403 19.72581,-0.386349 z M 175.20431,2.2918469 c 0.064,-10.398781 0.0349,-11.258499 -0.39687,-11.73609 -0.45516,-0.503431 -0.89792,-0.512871 -19.15955,-0.408451 -13.99205,0.08 -18.78963,0.18656 -19.07532,0.423667 -0.4268,0.354211 -0.56899,2.446676 -0.99832,14.691452 -0.17723,5.0547751 -0.1721,7.5208741 0.0164,7.8730481 0.26824,0.501218 0.71786,0.511267 19.90954,0.444963 l 19.63509,-0.06785 0.0691,-11.2207491 z m 64.29417,11.0223011 c 0.16407,-0.203573 0.21356,-1.573612 0.12872,-3.5634211 -0.10834,-2.540715 -0.23106,-3.31705 -0.57331,-3.62679 -0.372,-0.336656 -2.31887,-0.399447 -13.35718,-0.43081 l -12.92171,-0.03672 -0.95788,-0.877838 -0.95789,-0.877837 -0.0952,-3.13157599 c -0.0716,-2.35478101 -0.19728,-3.24642701 -0.50664,-3.59459501 -0.38035,-0.428059 -1.31333,-0.463021 -12.35603,-0.463021 -8.93748,0 -12.02455,0.07993 -12.26212,0.3175 -0.17463,0.174625 -0.31925,0.918766 -0.3214,1.653646 -0.005,1.83213401 -0.45318,2.638047 -1.52366,2.741985 -1.18213,0.114779 -1.27538,-0.257198 -1.47154,-5.870244 -0.10198,-2.917944 -0.28104,-4.868478 -0.46757,-5.093229 -0.36014,-0.433951 -2.42351,-0.4873439 -3.18036,-0.0823 -0.51437,0.275283 -0.52576,0.54568 -0.48189,11.443229 0.0284,7.047572 0.14337,11.2831801 0.31203,11.4920131 0.21086,0.261096 6.63194,0.330729 30.4971,0.330729 23.86544,0 30.28611,-0.06963 30.49655,-0.330729 z M 274.32499,2.8290229 c 0.42423,-0.468768 0.41098,-0.766657 -0.23244,-5.225521 -0.87123,-6.03758 -0.88597,-6.074621 -2.50196,-6.288992 -1.47943,-0.196252 -2.05132,-0.03449 -2.26567,0.640847 -0.0849,0.267629 0.0888,2.310458 0.38613,4.53962 0.29731,2.229165 0.6074,4.557041 0.68908,5.173057 0.17591,1.326682 0.60366,1.639091 2.25922,1.650047 0.86102,0.0057 1.34704,-0.137004 1.66564,-0.489058 z m -7.01745,-0.122169 c 0.42747,-0.515064 -0.69434,-9.865751 -1.3303,-11.088539 -0.18757,-0.360659 -0.58254,-0.463021 -1.7866,-0.463021 -2.02646,0 -2.25367,0.274029 -1.90253,2.294581 0.14737,0.848032 0.45507,3.200331 0.68378,5.227327 0.22871,2.02699701 0.54635,3.8427 0.70586,4.034896 0.39281,0.473316 3.23603,0.46921 3.62979,-0.0052 z m -45.74146,-0.30249 c 0.34465,-0.415274 0.2492,-3.16251199 -0.29386,-8.457927 -0.33474,-3.264112 -0.49132,-3.584893 -1.74982,-3.584893 -1.44431,0 -2.71526,-1.3049829 -2.71526,-2.7879559 0,-0.60316 -0.12852,-2.09785 -0.28559,-3.321537 -0.41016,-3.195442 -0.32855,-3.150923 -5.77622,-3.150923 -3.08165,0 -4.51162,0.09592 -4.73319,0.3175 -0.19976,0.199758 -0.3175,1.197756 -0.3175,2.691146 0,3.190877 0.1423,3.341354 3.15985,3.341354 2.1069,0 2.35205,0.05674 3.16013,0.731351 l 0.87604,0.73135 0.40259,6.4785449 c 0.3116,5.01446801 0.49434,6.583182 0.80861,6.941566 0.34677,0.395433 0.8974,0.463021 3.77222,0.463021 2.65308,0 3.4352,-0.08317 3.692,-0.392597 z m 6.16707,-0.07669 c 0.38948,-0.430373 0.38999,-0.907531 0.006,-5.754687 -0.30757,-3.883123 -0.52554,-5.408247 -0.82157,-5.748422 -0.53997,-0.620495 -1.96939,-0.597384 -2.54729,0.04118 -0.43107,0.476326 -0.43189,0.801825 -0.0149,5.886979 0.24279,2.96052601 0.56331,5.531603 0.71227,5.713504 0.41071,0.501537 2.16883,0.410144 2.66539,-0.138557 z M 99.905124,-4.4128811 c 0.497376,-0.401667 1.054216,-1.802648 2.218776,-5.582277 0.72243,-2.3446529 0.82684,-2.9624389 0.57017,-3.3734369 -0.67513,-1.081061 -0.91582,-0.832956 -4.451036,4.5881449 -2.02073,3.098702 -2.32916,3.714572 -2.08693,4.167187 0.23421,0.437613 0.55317,0.531111 1.81186,0.531111 0.8402,0 1.71192,-0.148828 1.93716,-0.330729 z m -8.10985,-0.368781 c 0.24415,-0.09369 1.7365,-2.136177 3.31633,-4.538864 2.30556,-3.5064169 2.82214,-4.4624619 2.61765,-4.8445549 -0.14012,-0.261818 -1.01985,-0.841176 -1.95496,-1.287462 -2.13475,-1.018823 -4.10593,-2.565572 -5.23027,-4.104114 -0.47804,-0.654148 -1.12625,-1.260184 -1.44045,-1.346747 -0.37213,-0.102518 -1.61733,0.300836 -3.57188,1.157033 -1.65032,0.722929 -3.83403,1.630341 -4.85267,2.016469 -2.83523,1.074727 -3.57529,1.442535 -3.73384,1.855711 -0.35932,0.936363 3.25562,5.424482 5.9798,7.4242099 1.64706,1.209059 4.19539,2.467086 6.48529,3.201578 1.01864,0.326734 1.87211,0.603742 1.89659,0.615571 0.0245,0.01183 0.24426,-0.05514 0.48841,-0.14883 z m 167.423266,-0.36171 c 0.31366,-0.447807 0.32004,-0.856273 0.0403,-2.579687 l -0.33238,-2.047634 0.73037,-0.9260419 c 0.71423,-0.905579 0.77745,-0.927732 2.8613,-1.002503 2.75218,-0.09875 2.90628,-0.263978 2.47022,-2.648667 -0.58013,-3.172632 -1.91409,-8.372901 -2.30421,-8.982684 -0.4884,-0.763402 -2.18807,-0.833154 -2.83671,-0.116416 -0.39851,0.440346 -0.40031,0.66843 -0.0224,2.833483 0.22604,1.295022 0.45998,2.433865 0.51987,2.530758 0.0599,0.0969 -0.24689,0.667295 -0.68172,1.267558 l -0.79059,1.091388 h -3.24404 -3.24403 l -1.36106,-1.190625 -1.36106,-1.190625 h -8.06085 c -6.6244,0 -8.11618,0.06667 -8.37133,0.374108 -0.23868,0.287591 -0.21438,1.063146 0.10507,3.353551 l 0.41556,2.979441 -0.73278,0.809429 c -0.92412,1.0207679 -1.18542,1.2114929 -1.44229,1.0527349 -0.11308,-0.06989 -0.44619,0.0016 -0.74024,0.159059 -0.45019,0.240933 -0.53464,0.551196 -0.53464,1.964214 0,1.237732 0.11476,1.773375 0.43731,2.041213 0.352,0.292285 2.91983,0.389914 13.16302,0.500443 6.99915,0.07552 13.22498,0.16482 13.83519,0.198438 0.85587,0.04715 1.19467,-0.0605 1.48214,-0.470935 z m -149.56765,-1.260808 c 2.29178,-0.823164 5.91866,-2.572385 6.30199,-3.039406 0.29121,-0.354788 0.25686,-0.8542149 -0.20784,-3.0219019 -0.30618,-1.428279 -0.61809,-2.79914 -0.69312,-3.046359 -0.23397,-0.770853 -1.09522,-0.806413 -2.8218,-0.116499 -0.90925,0.363323 -2.48662,0.863471 -3.50527,1.111438 -1.01865,0.247968 -1.99398,0.583872 -2.1674,0.74645 -0.17342,0.162579 -0.84989,2.021621 -1.50327,4.1312039 -1.05898,3.419195 -1.14532,3.882713 -0.79527,4.269521 0.36369,0.40187 0.52356,0.398994 2.16473,-0.03892 0.97462,-0.260062 2.42689,-0.708049 3.22725,-0.995524 z m 100.22416,-0.112138 c 0.17463,-0.174625 0.3175,-0.805657 0.3175,-1.402292 0,-0.596635 -0.14287,-1.227667 -0.3175,-1.402292 -0.19864,-0.198646 -1.18564,-0.3175 -2.63662,-0.3175 -2.21673,0 -2.36043,-0.03626 -3.25438,-0.8211579 -0.76448,-0.671221 -0.93525,-1.005946 -0.93525,-1.833184 0,-1.873149 0.14427,-1.843574 -8.99309,-1.843574 -4.48885,0 -8.34988,0.07227 -8.58006,0.160599 -0.63274,0.242806 -0.61588,6.5911069 0.0194,7.2930469 0.41175,0.454985 1.14264,0.483854 12.25021,0.483854 8.83458,0 11.89236,-0.08004 12.12982,-0.3175 z M 51.813604,-10.949621 c 3.06099,-0.166669 4.57989,-0.353028 4.81377,-0.590619 0.18794,-0.190915 0.93964,-2.692868 1.67045,-5.559893 1.41648,-5.556972 3.85528,-13.183028 5.4408,-17.013234 0.9297,-2.245918 0.94784,-2.34995 0.48639,-2.789282 -0.44257,-0.421363 -0.71075,-0.429073 -3.49752,-0.100547 -4.18861,0.493784 -6.95983,1.103929 -7.45654,1.641729 -1.20758,1.307465 -5.41483,12.296578 -7.51259,19.622488 -1.14529,3.99964 -1.20103,4.332423 -0.79989,4.775669 0.31152,0.34423 0.702,0.446023 1.40711,0.366818 0.53677,-0.0603 2.98837,-0.219205 5.44802,-0.353129 z m 20.42243,-0.776216 c 1.98321,-0.02708 2.16138,-0.07541 2.42693,-0.658233 0.18508,-0.406207 0.19573,-0.719873 0.03,-0.885555 -0.51457,-0.514572 -2.30024,-5.029369 -2.90663,-7.348984 -0.54579,-2.087812 -0.6223,-2.984432 -0.62087,-7.276042 0.001,-3.721637 0.11592,-5.421426 0.47847,-7.092087 0.37388,-1.722856 0.40832,-2.279864 0.15949,-2.579687 -0.3958,-0.476904 -2.62914,-0.512689 -3.22399,-0.05166 -1.15695,0.896668 -5.54915,13.49095 -7.61354,21.831233 -1.17063,4.729451 -1.43655,4.480303 4.54607,4.259456 2.52103,-0.09306 5.54684,-0.182362 6.72403,-0.198438 z m 50.363096,-1.944656 c 4.57618,-3.464718 10.56313,-9.913876 10.21668,-11.005441 -0.11653,-0.367146 -0.87928,-0.734478 -2.76908,-1.333555 -1.43453,-0.454756 -2.77361,-0.826829 -2.97572,-0.826829 -0.2021,0 -1.12323,0.887762 -2.04694,1.972802 -1.78398,2.095564 -3.77608,3.923769 -6.04662,5.549138 -0.80773,0.578215 -1.38906,1.197076 -1.38906,1.47873 0,0.814049 1.10642,5.397659 1.38794,5.749851 0.48304,0.604313 1.07163,0.346847 3.6228,-1.584696 z m 107.57556,0.945484 c 0.35445,-0.354444 0.40661,-0.730158 0.2663,-1.91823 -0.39934,-3.381602 -1.48903,-9.392073 -1.7625,-9.721585 -0.20098,-0.242159 -0.9611,-0.354827 -2.39388,-0.354827 -1.15467,0 -2.62837,-0.133197 -3.2749,-0.295992 -1.10292,-0.27772 -1.17549,-0.351631 -1.17549,-1.197176 0,-1.164511 0.62869,-1.417249 3.52545,-1.417249 3.03553,0 3.0196,0.04302 1.87277,-5.059695 -0.50291,-2.237637 -1.03761,-4.622157 -1.18822,-5.298937 -0.45443,-2.042012 -0.24597,-1.98917 -8.57563,-2.173801 -11.99582,-0.265893 -57.37532,-0.532572 -58.13603,-0.341643 -0.38417,0.09642 -0.7615,0.383389 -0.83852,0.637712 -0.16623,0.548936 -0.56966,8.409151 -0.96514,18.8045 -0.21823,5.73618 -0.21168,7.582654 0.0279,7.871354 0.48424,0.583472 23.84351,0.56084 24.32853,-0.02358 0.25046,-0.301789 0.28698,-1.201303 0.14789,-3.642762 -0.21088,-3.701692 -0.0248,-4.529259 1.08078,-4.806743 1.06779,-0.267999 1.67853,0.572614 1.67853,2.310294 0,2.396426 -0.3566,2.306627 9.15983,2.306627 8.09194,0 8.29081,-0.01262 8.57556,-0.544685 0.16033,-0.299577 0.21447,-0.895426 0.12032,-1.324112 -0.13842,-0.630195 -0.005,-0.989645 0.69838,-1.877362 l 0.86958,-1.097933 6.42715,0.164719 c 8.45197,0.216609 8.04705,-0.03348 8.67374,5.35718 0.19495,1.676966 0.49445,3.217706 0.66555,3.423864 0.31987,0.385424 1.66104,0.500875 7.05818,0.607584 2.20891,0.04367 2.77233,-0.02601 3.13385,-0.38753 z m -76.1588,-0.419698 c 0.23159,-0.231969 0.41046,-2.41531 0.60145,-7.341611 0.14951,-3.856302 0.40816,-9.777917 0.57476,-13.159147 0.24163,-4.903766 0.23563,-6.228775 -0.0297,-6.548437 -0.27633,-0.332954 -1.18873,-0.399325 -5.39343,-0.392335 -3.56583,0.0059 -5.18616,0.103876 -5.4851,0.331563 -0.23335,0.177731 -0.7367,1.315783 -1.11856,2.529004 -2.48902,7.907893 -6.90492,15.042464 -13.31246,21.508325 -2.3344,2.355651 -2.5021,2.594184 -2.20893,3.14198 l 0.31725,0.592796 12.86253,-0.165994 c 9.74138,-0.125715 12.94251,-0.246108 13.19215,-0.496144 z m -48.31502,-3.976587 c 0.42645,-0.330724 1.44415,-3.775289 2.3622,-7.995232 0.64237,-2.952766 0.64406,-3.108449 0.038,-3.486967 -0.42863,-0.267687 -0.84569,0.02042 -3.25914,2.251458 -1.52219,1.407134 -3.9799,3.559297 -5.461586,4.782587 -2.81708,2.325783 -3.14661,2.891033 -2.08928,3.583818 1.52867,1.001625 7.448316,1.610027 8.409846,0.864336 z m 6.53413,-1.637692 c 0.76641,-0.356811 1.4669,-0.84007 1.55663,-1.073912 0.16027,-0.417652 -0.80616,-4.57427 -1.2746,-5.482065 -0.43264,-0.838439 -1.23205,-0.560846 -1.52389,0.529166 -1.02743,3.837432 -1.38149,5.917771 -1.07086,6.292054 0.43291,0.521631 0.68454,0.492773 2.31272,-0.265243 z m 144.542,-0.293552 c 0.28422,-0.342461 0.28666,-0.762214 0.0134,-2.315104 -0.18354,-1.043242 -0.39819,-2.270797 -0.477,-2.727905 -0.11792,-0.68394 0.0143,-1.001209 0.74655,-1.791758 l 0.88985,-0.960654 4.7625,0.236214 c 4.18135,0.207391 4.82083,0.185299 5.24051,-0.181041 0.33203,-0.28983 0.42759,-0.618122 0.31292,-1.075002 -0.44118,-1.757804 -3.66982,-9.964089 -4.02136,-10.221137 -0.22059,-0.161295 -0.9532,-0.316711 -1.62802,-0.345371 -0.67483,-0.02866 -3.13196,-0.16424 -5.4603,-0.301291 -2.32833,-0.137052 -6.0788,-0.318268 -8.33437,-0.402699 -2.25558,-0.08443 -6.72042,-0.26693 -9.92188,-0.405551 -3.20146,-0.138617 -6.65539,-0.253166 -7.67541,-0.25455 -2.48041,-0.0034 -2.63475,0.238273 -1.95552,3.061568 0.27724,1.152411 0.7999,3.524043 1.16144,5.270293 0.87336,4.218226 0.71489,4.101042 5.54584,4.101042 2.07053,0 6.13523,0.07873 9.03267,0.174948 l 5.26807,0.174947 0.80895,0.81724 c 0.67279,0.67968 0.90959,1.284856 1.40678,3.595365 0.87434,4.063174 0.81466,3.968749 2.5087,3.968749 0.97951,0 1.53759,-0.131474 1.77564,-0.418303 z M 76.896264,-19.407725 c 0.33427,-0.134377 1.73885,-0.686065 3.1213,-1.225974 4.97555,-1.943174 7.39255,-3.090235 7.54879,-3.5825 0.0847,-0.266904 0.0289,-0.935853 -0.12404,-1.486554 -0.15293,-0.550698 -0.27871,-1.310243 -0.27952,-1.687869 -8e-4,-0.377629 -0.22673,-0.890442 -0.50203,-1.139587 -0.46502,-0.420838 -0.69506,-0.424942 -3.24114,-0.05783 -1.50733,0.217337 -4.10982,0.533598 -5.78331,0.702805 -1.67349,0.169206 -3.20615,0.44161 -3.40592,0.60534 -0.43068,0.353002 -0.25779,2.966587 0.37744,5.705633 0.55543,2.394982 0.90259,2.72365 2.28843,2.166536 z m 172.546826,-1.895404 c 0.2839,-0.405331 0.32391,-0.77149 0.15039,-1.376516 -0.45271,-1.57852 -0.30916,-1.549492 -8.87071,-1.793811 -7.11678,-0.203092 -7.93656,-0.182949 -8.36583,0.205531 -0.36465,0.330001 -0.43628,0.652272 -0.30642,1.378542 0.33395,1.867747 0.29005,1.855494 6.95207,1.940391 3.29047,0.04193 6.89865,0.103658 8.01819,0.137165 1.80248,0.05395 2.0798,-0.0024 2.42231,-0.491302 z M 96.527834,-22.979756 c 1.32409,-1.08035 3.24087,-2.736816 4.259516,-3.681034 1.76338,-1.634538 1.83018,-1.739323 1.39473,-2.187805 -0.4383,-0.451411 -0.51548,-0.447379 -1.85209,0.09673 -3.295116,1.341387 -7.622536,2.973882 -7.883176,2.973882 -0.15536,0 -0.58385,0.301376 -0.9522,0.669726 l -0.66972,0.669727 0.71847,1.248502 c 0.97634,1.696604 1.42667,2.174545 2.04891,2.174545 0.29047,0 1.61147,-0.883923 2.93556,-1.964273 z m 22.568176,-0.11412 c 2.39043,-2.000433 4.38565,-4.230389 4.20538,-4.700149 -0.0862,-0.224668 -0.15675,-0.517813 -0.15675,-0.651433 0,-0.133617 -0.12073,-0.242943 -0.26829,-0.242943 -0.14756,0 -1.75183,-0.670557 -3.56502,-1.490128 -3.22344,-1.456999 -3.3119,-1.480187 -3.97926,-1.042918 -0.3754,0.245967 -0.75144,0.626782 -0.83566,0.846253 -0.21998,0.573262 1.77197,7.840618 2.25724,8.23523 0.59194,0.481354 0.66077,0.453324 2.34236,-0.953912 z m 16.18942,-4.784699 c 0.25539,-0.136678 0.67693,-0.719952 0.93677,-1.296162 0.77751,-1.724215 0.45678,-1.96973 -3.07079,-2.350645 l -2.99531,-0.323443 -0.59531,0.668925 c -1.16115,1.304721 -0.81543,1.708176 2.3151,2.701779 2.96174,0.940031 2.81994,0.915094 3.40954,0.599546 z M 97.347774,-30.66995 c 1.01864,-0.400881 2.840626,-1.147892 4.048856,-1.66002 2.01854,-0.855596 2.19028,-0.987141 2.11666,-1.621348 l -0.0801,-0.690208 -6.217696,-0.142988 c -7.58609,-0.174461 -7.19037,-0.3458 -7.35925,3.186377 -0.096,2.008875 -0.0404,2.480839 0.34264,2.904048 0.44838,0.495456 0.50462,0.488206 2.87707,-0.370824 1.33086,-0.481886 3.25318,-1.204154 4.27183,-1.605037 z m -16.34126,-0.542745 c 2.96972,-0.381786 5.3729,-0.81579 5.56239,-1.004544 0.1835,-0.182782 0.5028,-1.279273 0.70954,-2.436643 0.20675,-1.157372 0.56435,-2.630177 0.79467,-3.272903 0.23033,-0.642729 0.35149,-1.380567 0.26927,-1.639644 -0.0844,-0.266023 -0.77707,-0.70747 -1.59133,-1.01422 -0.793,-0.298743 -2.12643,-0.798218 -2.96318,-1.109948 -0.83674,-0.311727 -2.40041,-0.969878 -3.47481,-1.462553 -1.78082,-0.81661 -2.0053,-0.861809 -2.54008,-0.511405 -1.45471,0.953161 -4.2333,11.616705 -3.3152,12.722941 0.42971,0.517771 0.4046,0.518811 6.54873,-0.271081 z m 44.643576,0.241829 c 0.23763,-0.09119 0.85254,-1.000757 1.36646,-2.021266 0.90387,-1.794835 0.91855,-1.87071 0.44948,-2.321867 -0.45597,-0.438546 -0.71404,-0.44342 -4.32139,-0.0816 -4.50575,0.45193 -4.49791,0.449951 -4.49791,1.135851 0,0.600128 0.56355,0.934244 4.10104,2.431383 2.79769,1.184045 2.37602,1.059461 2.90232,0.857499 z m -13.67921,-1.566622 c 1.93462,-0.808336 3.23626,-2.681054 3.23626,-4.656132 0,-1.594069 -0.76119,-2.342697 -2.38201,-2.342697 -3.45279,0 -6.37715,4.824402 -4.17049,6.880211 0.68454,0.637752 1.96423,0.683525 3.31624,0.118618 z m 26.90626,-2.051335 c 0.60724,-0.926756 2.50223,-6.897486 2.58392,-8.141412 0.12477,-1.899676 -0.26834,-1.895694 -4.70645,0.04765 -2.14919,0.941086 -3.9967,1.885156 -4.10558,2.097937 -0.10887,0.212777 -0.45618,1.503957 -0.77181,2.869287 -0.69963,3.026518 -0.64351,3.117252 2.12649,3.438091 3.63309,0.420806 4.42682,0.370064 4.87343,-0.311555 z m -36.6875,-3.148327 c 0.69856,-0.698556 0.28001,-1.210972 -2.262186,-2.769521 -1.41882,-0.869847 -3.1947,-1.971408 -3.9464,-2.447914 -1.04947,-0.665277 -1.47494,-0.805802 -1.83302,-0.605415 -0.25647,0.143529 -0.97537,1.256401 -1.59755,2.473053 -1.64768,3.221952 -1.63754,3.230819 3.90291,3.412688 2.38368,0.07824 4.578036,0.167542 4.876356,0.198437 0.29831,0.03089 0.68527,-0.0867 0.85989,-0.261328 z m 24.60801,-0.901767 c 2.24873,-0.236368 2.67543,-0.635185 2.76104,-2.580647 0.10712,-2.434405 -0.19795,-2.456321 -3.86288,-0.277519 -2.34999,1.397068 -3.07621,1.958528 -3.07799,2.379689 -0.003,0.809823 0.27136,0.961181 1.45119,0.799303 0.583,-0.07999 1.81089,-0.224361 2.72864,-0.320826 z m -68.975056,-0.904396 c 0.78385,-0.149368 4.48981,-0.5583 8.23547,-0.90874 3.74566,-0.350438 6.91593,-0.70245 7.04505,-0.782246 0.12911,-0.0798 0.50758,-0.831723 0.84103,-1.670947 0.74632,-1.878277 2.57427,-5.583023 3.68007,-7.458472 0.68809,-1.167 0.76982,-1.470879 0.49329,-1.83411 -0.1823,-0.23945 -0.34619,-0.466018 -0.3642,-0.503486 -0.0628,-0.130686 -7.15285,0.745088 -10.30345,1.272701 -1.74625,0.292436 -3.89466,0.767681 -4.77426,1.056098 -1.5857,0.519949 -1.61189,0.545108 -3.09035,2.968318 -0.8201,1.344157 -2.04498,3.445502 -2.72195,4.669658 -1.09855,1.986473 -1.19529,2.292228 -0.89984,2.84427 0.18207,0.340194 0.35419,0.618535 0.3825,0.618535 0.0283,0 0.6928,-0.122211 1.47664,-0.271579 z m 49.924636,-1.220488 c 0.0786,-0.551167 -0.8212,-3.482171 -2.77821,-9.04984 -1.20867,-3.438678 -1.48027,-3.594938 -3.52037,-2.025441 -2.059126,1.584129 -5.026916,4.658132 -5.026916,5.206817 0,0.466482 1.56113,1.557928 6.996396,4.891445 2.8974,1.777008 4.17395,2.06511 4.3291,0.977019 z m 154.67177,-1.22079 c 0.23852,-0.379273 -0.18618,-1.409372 -2.3281,-5.64673 -1.74096,-3.444131 -2.80582,-5.26067 -3.17421,-5.414856 -0.30489,-0.127614 -2.92713,-0.414584 -5.8272,-0.637707 -3.61381,-0.27804 -5.46002,-0.528314 -5.8677,-0.79544 -0.32717,-0.214368 -1.27367,-1.55356 -2.10333,-2.975981 -0.82967,-1.422421 -1.96045,-3.19429 -2.51286,-3.937489 l -1.00437,-1.351269 -5.11319,-0.31123 c -2.81226,-0.171175 -5.5057,-0.36019 -5.98543,-0.420036 -0.71479,-0.08916 -0.9233,0.0033 -1.1551,0.512008 -0.23231,0.50986 -0.10555,1.078431 0.70923,3.181271 l 0.9921,2.560457 -0.77572,1.103574 -0.77573,1.103577 -3.55919,-0.07599 c -1.95755,-0.04179 -4.57122,-0.126572 -5.80815,-0.188394 -1.23692,-0.06182 -5.52768,-0.189326 -9.53501,-0.28334 -6.57737,-0.154308 -7.32129,-0.128484 -7.64826,0.265496 -0.30946,0.372877 -0.23435,1.215025 0.51581,5.783286 0.58558,3.566015 1.01798,5.489125 1.29826,5.774005 0.369,0.37506 2.53342,0.481465 17.75045,0.872627 19.39867,0.498653 22.71077,0.613617 31.22083,1.083686 8.02817,0.44345 10.30829,0.400452 10.68687,-0.201525 z m -138.50874,-1.826583 c 1.2524,-0.75044 2.97508,-1.835528 3.82819,-2.411304 1.46743,-0.990401 1.54336,-1.094515 1.40773,-1.930297 -0.25777,-1.588447 -1.33222,-3.413286 -2.06106,-3.500487 -0.55125,-0.06596 -0.86314,0.228179 -1.96392,1.852083 -0.71974,1.061768 -2.06702,2.974411 -2.99397,4.250319 -1.39224,1.916348 -1.62876,2.388037 -1.35991,2.711979 0.17899,0.215681 0.44704,0.392147 0.59564,0.392147 0.14861,0 1.29489,-0.613997 2.5473,-1.36444 z m -33.740866,0.608954 c 0.24434,-0.269996 0.37275,-0.677251 0.28535,-0.905007 -0.14564,-0.379553 -7.77528,-5.55522 -8.72818,-5.920882 -0.83269,-0.319535 -2.50741,2.000202 -2.13835,2.961946 0.088,0.229436 0.96481,0.78613 1.94836,1.237099 2.18549,1.002065 7.50049,3.092908 7.89884,3.107288 0.15934,0.0057 0.48964,-0.210447 0.73398,-0.480444 z m 71.492866,-0.584647 c 0.20696,-0.171762 0.37199,-1.929063 0.48969,-5.214159 0.24285,-6.778485 0.63867,-15.781432 0.83492,-18.989878 0.13524,-2.211184 0.0939,-2.714681 -0.24599,-2.996774 -0.46184,-0.383291 -6.26394,-0.423675 -18.12338,-0.126138 -6.96774,0.174813 -6.96992,0.175051 -7.25103,0.792015 -0.24936,0.547275 -0.13282,0.774747 1.0293,2.009129 4.7684,5.064911 7.01942,12.113625 6.59908,20.664019 -0.10999,2.237546 -0.081,3.781067 0.0746,3.968749 0.32296,0.389621 16.11716,0.287809 16.59283,-0.106963 z m 37.40696,0.162566 c 0.41872,-0.504529 0.28209,-1.85464 -0.75951,-7.505401 -0.41088,-2.229017 -0.88779,-4.193548 -1.05979,-4.365625 -0.22215,-0.222229 -2.5509,-0.338495 -8.0387,-0.401338 l -7.72596,-0.08848 -0.84042,-0.804444 c -0.75811,-0.725667 -0.85636,-1.002011 -1.00326,-2.821942 -0.45583,-5.64727 -0.99023,-10.548395 -1.20808,-11.079477 -0.24275,-0.591805 -0.27833,-0.595313 -6.03829,-0.595313 -4.84168,0 -5.84855,0.0656 -6.12531,0.399066 -0.36574,0.44069 -0.56296,3.706624 -1.07407,17.786601 -0.25501,7.024975 -0.25263,8.873151 0.0118,9.191794 0.28518,0.343617 2.11266,0.408339 13.1991,0.467457 7.07745,0.03774 14.54458,0.105111 16.59361,0.149712 3.12401,0.068 3.78095,0.01429 4.06886,-0.332615 z m -61.61457,-2.536757 c 4.99606,-2.254189 4.78034,-2.068263 4.6861,-4.038869 -0.0692,-1.447189 -0.14519,-1.649032 -0.64771,-1.720654 -0.65062,-0.09273 -8.8234,5.82282 -8.8234,6.386472 0,0.418777 0.5342,0.970709 0.93953,0.970709 0.16749,0 1.89795,-0.718945 3.84548,-1.597658 z m -26.41028,-0.779256 c 0.1141,-0.79798 0.17467,-3.166438 0.1346,-5.263239 -0.0891,-4.661408 -0.12877,-4.715296 -2.67476,-3.633237 -0.94786,0.402846 -1.79043,0.907169 -1.87238,1.120711 -0.0819,0.213543 0.53406,2.410725 1.36889,4.882623 1.44981,4.292809 1.54744,4.490993 2.17703,4.41919 0.58317,-0.06651 0.68308,-0.24244 0.86662,-1.526048 z m -17.436156,-1.238382 c 0.52879,-0.678725 0.96143,-1.398841 0.96143,-1.600261 0,-0.201419 -1.01418,-1.50532 -2.25374,-2.89756 -1.23955,-1.39224 -2.69807,-3.10783 -3.24114,-3.812426 -1.33885,-1.737045 -1.94022,-1.721866 -3.51728,0.08878 -1.86474,2.140937 -2.44994,3.031495 -2.28113,3.471402 0.19529,0.508937 8.36427,5.969616 8.9428,5.977951 0.23519,0.0034 0.86027,-0.549159 1.38906,-1.227884 z M 116.62011,-50.2735 c 0.70437,-1.734394 1.51741,-3.733077 1.80676,-4.441523 0.87501,-2.142384 0.39556,-2.801138 -2.04468,-2.809349 -2.01771,-0.0068 -2.08174,0.14504 -2.24875,5.332156 -0.1256,3.901183 -0.0877,4.636034 0.25389,4.920403 0.22085,0.183862 0.52542,0.293225 0.67682,0.243025 0.15141,-0.0502 0.85159,-1.510321 1.55596,-3.244712 z m 5.95344,-1.003657 c 2.10119,-3.079422 2.25272,-3.76523 0.96186,-4.353383 -1.34373,-0.612245 -1.51252,-0.417726 -3.01782,3.477916 -1.16409,3.012588 -1.25144,3.381134 -0.85602,3.611478 0.2422,0.141086 0.55943,0.223726 0.70495,0.183645 0.14552,-0.04008 1.13868,-1.353929 2.20703,-2.919656 z m 13.53567,-0.799992 c 1.81901,-1.364577 3.78202,-2.896195 4.36225,-3.403597 l 1.05495,-0.922544 -0.62523,-1.95141 c -1.08406,-3.383497 -2.63396,-6.013135 -5.00976,-8.499845 -1.02843,-1.076439 -1.98539,-1.284494 -2.43393,-0.529167 -0.15122,0.254662 -1.58098,2.655962 -3.17724,5.336225 -1.59626,2.680264 -2.90229,5.024818 -2.90229,5.210125 0,0.185306 0.59997,1.022537 1.33327,1.860518 0.7333,0.837978 1.71556,2.326994 2.18281,3.308924 0.73375,1.541973 1.03402,1.887625 1.77559,2.043938 0.0728,0.01535 1.62057,-1.088589 3.43958,-2.453167 z m -37.576366,-1.187158 c 0.67052,-0.565397 2.166466,-1.646164 3.324316,-2.401705 1.15785,-0.755542 2.20152,-1.545117 2.31927,-1.754608 0.13151,-0.233971 -0.1075,-1.272175 -0.61963,-2.691525 -2.82151,-7.819754 -2.90258,-7.999171 -3.614396,-7.999171 -1.03093,0 -9.68994,6.422054 -10.00733,7.422049 -0.12907,0.406667 0.33963,1.134078 1.9994,3.103007 2.8376,3.366151 4.72379,5.349943 5.08675,5.349943 0.16086,0 0.84109,-0.462597 1.51162,-1.02799 z m -29.58796,-1.337654 c 1.94262,-0.282459 5.53606,-0.718045 7.98542,-0.967973 l 4.45337,-0.454414 2.18498,-2.537756 c 2.06171,-2.394572 4.78784,-4.996328 7.62755,-7.279553 1.38119,-1.110525 1.40905,-1.166513 0.91603,-1.840762 -0.32467,-0.443999 -0.54006,-0.439695 -4.56407,0.0912 -7.39725,0.975937 -13.04957,2.140995 -15.0765,3.107571 -0.87254,0.416084 -3.66954,3.677999 -6.70228,7.816315 -0.93106,1.270474 -1.06872,1.609466 -0.83267,2.050521 0.15553,0.290626 0.32629,0.52841 0.37946,0.52841 0.0532,0 1.68609,-0.231103 3.62871,-0.513561 z m 155.941176,-3.729876 c 0.47716,-0.527259 0.46409,-0.598104 -0.58697,-3.180191 l -1.075,-2.640918 0.77209,-1.16564 0.77209,-1.165643 3.41286,0.151786 3.41286,0.151784 0.16647,-0.663266 c 0.12981,-0.517202 -0.19701,-1.257287 -1.48405,-3.360679 -0.90778,-1.483577 -1.85338,-2.80598 -2.10131,-2.938671 -0.46049,-0.246444 -7.17439,-0.882513 -12.75303,-1.20821 -3.2853,-0.191804 -3.90661,-0.03703 -3.90661,0.973164 0,0.268968 -0.35875,0.99853 -0.79722,1.621248 l -0.79722,1.132215 -3.32366,-0.132291 c -4.5397,-0.180692 -4.45831,-0.286827 -3.19261,4.163507 0.52826,1.857414 1.20634,4.329617 1.50684,5.493784 0.30051,1.164167 0.74144,2.265495 0.97986,2.447396 0.2976,0.227055 1.68245,0.340833 4.41781,0.362963 3.5316,0.02857 12.54354,0.32535 13.66675,0.450072 0.23211,0.02577 0.64163,-0.195813 0.91005,-0.49241 z m -99.92846,-0.744527 c 0.41633,-0.416335 5.16553,-8.22375 6.09944,-10.027139 0.60285,-1.164106 -0.44028,-1.97181 -4.16861,-3.227793 -1.87452,-0.631483 -2.7681,-0.683683 -3.18127,-0.185846 -0.16281,0.196173 -0.47936,1.416564 -0.70345,2.711979 -0.22409,1.295419 -0.70536,3.664993 -1.06948,5.265722 -0.92446,4.064127 -0.94553,4.197567 -0.71501,4.528571 0.22674,0.325562 2.39344,1.366927 2.9176,1.40226 0.1819,0.01225 0.55125,-0.198229 0.82078,-0.467754 z m 65.50459,0.07427 c 0.51401,-0.514016 0.51437,-0.716319 0.006,-3.532356 -1.03054,-5.711367 -1.52468,-7.859837 -1.90637,-8.288848 -0.34595,-0.388845 -0.88625,-0.463021 -3.37264,-0.463021 -2.49567,0 -3.02157,0.07273 -3.34828,0.463021 -0.34128,0.407696 -0.32247,1.117431 0.15745,5.939914 0.29977,3.012292 0.66615,5.598014 0.81419,5.746051 0.14803,0.148035 1.75537,0.30683 3.57185,0.352875 1.81649,0.04605 3.3835,0.109466 3.48224,0.14093 0.0988,0.03146 0.36664,-0.129889 0.59532,-0.358566 z m 11.55095,-0.0084 c 0.29605,-0.356722 0.25387,-0.809193 -0.26516,-2.84427 -1.01317,-3.972537 -2.42297,-8.484079 -2.75461,-8.815147 -0.18894,-0.188613 -1.47202,-0.341807 -3.2823,-0.39189 -3.68083,-0.101833 -3.99663,0.08184 -3.55257,2.066176 0.32816,1.466421 1.24986,6.523392 1.51145,8.292671 0.2996,2.026367 0.49126,2.116667 4.49266,2.116667 2.88715,0 3.55999,-0.07413 3.85053,-0.424207 z m -92.22997,-0.345982 1.32292,-0.464598 0.0862,-2.226873 c 0.15496,-4.003133 -0.22024,-9.181992 -0.70886,-9.784233 l -0.43568,-0.536988 -1.75648,0.542978 c -2.55156,0.78876 -4.63011,1.760971 -4.81938,2.254202 -0.0907,0.236262 0.2364,1.465247 0.7268,2.731077 0.4904,1.265827 1.21641,3.254007 1.61337,4.418173 1.3281,3.895008 1.41665,3.963374 3.97111,3.066262 z m 7.86578,-1.228614 c 0.50396,-0.29188 1.09864,-2.444485 2.17647,-7.878289 0.80451,-4.055903 0.81019,-4.20457 0.1824,-4.772715 -0.42967,-0.388847 -0.81237,-0.414782 -3.06499,-0.207711 -1.66771,0.153305 -2.71374,0.376338 -2.97083,0.633436 -0.34205,0.342051 -0.35724,0.860039 -0.11001,3.75299 0.15774,1.845895 0.28681,4.414499 0.28681,5.708007 0,2.047679 0.0681,2.399514 0.52633,2.720493 0.59584,0.417341 2.28589,0.442228 2.97382,0.04379 z m -35.911606,-9.102169 c 1.74625,-0.284649 5.31813,-0.761505 7.9375,-1.05968 2.61938,-0.298175 5.14757,-0.606078 5.61821,-0.684234 0.71161,-0.118168 1.27981,-0.674542 3.37407,-3.303785 5.911806,-7.422023 12.705456,-14.164243 19.384276,-19.237523 1.63711,-1.24356 2.97656,-2.40784 2.97656,-2.5873 0,-0.17946 -0.17064,-0.4679 -0.37919,-0.64099 -0.29918,-0.2483 -1.25391,-0.0869 -4.52426,0.76466 -5.0131,1.30541 -7.00406,2.11156 -11.27285,4.56442 -8.238956,4.73415 -16.989226,11.324602 -23.974206,18.056718 -3.18911,3.073654 -3.84469,3.953631 -3.32934,4.468971 0.26216,0.26217 0.71232,0.225499 4.18923,-0.341257 z m 22.989596,-3.952385 c 4.97374,-1.915216 9.81192,-2.75303 15.37498,-2.662436 2.03729,0.03318 3.83817,0.04421 4.00194,0.02453 0.16377,-0.01968 1.04448,-1.375254 1.95713,-3.012363 3.81649,-6.846008 7.9544,-12.495248 13.59957,-18.566668 1.34171,-1.44301 1.34873,-1.45953 0.88042,-2.0703 -0.30535,-0.398239 -0.65752,-0.394079 -4.59023,0.0543 -4.67414,0.53285 -4.61753,0.51278 -8.83737,3.13365 -5.97645,3.71187 -13.79493,10.06306 -18.5562,15.073761 -2.97998,3.136085 -6.8438,7.603516 -6.8438,7.912943 0,0.29105 0.55489,0.878491 0.82982,0.878491 0.10715,0 1.08983,-0.344638 2.18374,-0.765865 z m 33.31181,-0.496459 c 0.23323,-0.257715 0.898,-1.775762 1.47727,-3.373438 2.64003,-7.28145 6.27877,-14.93982 9.27624,-19.5235 1.55458,-2.37723 1.82411,-2.94697 1.59587,-3.373439 -0.21826,-0.40781 -0.55989,-0.51313 -1.66453,-0.51313 -1.35608,0 -1.44762,0.0503 -3.761,2.068299 -5.84412,5.09782 -11.57169,12.41584 -16.38672,20.937045 -1.26412,2.237113 -1.15111,2.642984 0.97888,3.515609 1.44922,0.593725 2.06544,0.683186 4.8598,0.705535 2.74682,0.02196 3.26021,-0.04078 3.62419,-0.442981 z m 69.39037,-0.157263 c 0.17413,-0.693791 -2.21742,-5.694632 -4.63285,-9.687475 l -1.35719,-2.24352 0.65649,-1.19606 0.65649,-1.19606 1.66286,-0.0803 c 2.83938,-0.13713 2.77991,-0.77423 -0.37609,-4.02886 -4.61766,-4.76197 -8.16358,-7.638689 -9.80823,-7.957179 -2.04678,-0.39636 -2.96724,-0.29544 -3.32019,0.36404 -0.27244,0.509069 -0.2145,0.842419 0.37939,2.182819 0.38551,0.87009 0.93595,2.20864 1.2232,2.97455 l 0.52226,1.39256 -0.80938,1.10058 -0.80938,1.10059 -2.98967,-0.0642 c -4.02857,-0.0866 -3.93204,-0.20707 -3.47451,4.33834 0.19042,1.89177 0.53896,5.463647 0.77453,7.937501 0.27326,2.869715 0.55797,4.64158 0.78652,4.894791 0.29689,0.328933 1.55042,0.412631 7.32234,0.488918 3.83027,0.05062 7.01373,0.13992 7.07437,0.198438 0.0606,0.05851 1.51688,0.106394 3.2361,0.106394 3.06615,0 3.12887,-0.01196 3.28294,-0.625837 z m -24.52489,-0.301226 c 0.30432,-0.288835 0.29074,-1.131723 -0.087,-5.397642 -0.95972,-10.839337 -1.1279,-11.666957 -2.37084,-11.666957 -0.31743,0 -0.95361,-0.3884 -1.41372,-0.86311 -0.76263,-0.78684 -0.89313,-1.18663 -1.47685,-4.52436 -0.41262,-2.35942 -0.79616,-3.816469 -1.07865,-4.097819 -0.39441,-0.39282 -1.43852,-0.42959 -10.41515,-0.3668 -11.4601,0.0802 -10.40293,-0.15845 -12.67992,2.861909 -3.304,4.38264 -6.81028,11.05513 -9.98361,18.998899 -1.45017,3.630192 -1.73514,4.577302 -1.51957,5.05043 l 0.26533,0.582329 20.19965,-0.117295 c 16.03414,-0.09311 20.27403,-0.18788 20.5603,-0.459584 z m 41.78748,-2.300853 c 0.52629,-0.526288 0.36342,-1.12245 -0.5424,-1.985381 -0.8082,-0.769935 -1.04282,-0.836451 -3.9026,-1.106389 -1.67349,-0.157964 -4.91111,-0.366662 -7.19471,-0.463775 l -4.152,-0.176567 -0.16901,0.673391 c -0.20273,0.80776 0.45719,2.221008 1.12792,2.415471 0.25626,0.07429 3.14483,0.274696 6.41905,0.445336 3.27422,0.170638 6.00273,0.356412 6.06337,0.412832 0.25839,0.240435 2.05974,0.07572 2.35038,-0.214918 z m -5.0797,-6.706386 c 0.14218,-0.56649 -0.0784,-0.93548 -1.38402,-2.31511 -3.18561,-3.36621 -4.16006,-4.14141 -5.42361,-4.31459 -1.0714,-0.14686 -1.20516,-0.10217 -1.47647,0.49329 -0.23781,0.52195 -0.21775,0.73536 0.0989,1.05203 0.35328,0.35329 0.31992,0.54986 -0.30141,1.776 l -0.69865,1.37874 -1.90547,-0.17856 c -1.68671,-0.15805 -1.95908,-0.11931 -2.37246,0.33746 -0.57361,0.63384 -0.35251,1.33747 0.52513,1.67115 0.35343,0.13437 1.73617,0.25692 3.07277,0.27233 1.33659,0.0154 3.50173,0.11561 4.81142,0.22266 4.64786,0.37993 4.86348,0.36306 5.05384,-0.3954 z m -30.75959,-11.19861 c 0.24092,-0.19972 0.43804,-0.48322 0.43804,-0.63 0,-0.45514 -2.14459,-5.182969 -2.4757,-5.457759 -0.17222,-0.14293 -1.6204,-0.34179 -3.21819,-0.44192 -2.65434,-0.16634 -2.94413,-0.13855 -3.35768,0.322 -0.4203,0.46807 -0.42379,0.66391 -0.049,2.743669 0.64585,3.58347 0.60309,3.53901 3.55328,3.69484 3.81151,0.20133 4.63264,0.16423 5.10921,-0.23083 z m -54.33071,-7.816349 c 2.04802,-0.32146 14.25114,-1.22764 19.84375,-1.47357 3.27422,-0.14397 10.56261,-0.26336 16.19642,-0.2653 9.84573,-0.003 10.2539,-0.0233 10.51651,-0.51403 0.34949,-0.65304 -0.36235,-1.24279 -2.99034,-2.47748 -3.6758,-1.72697 -4.72027,-1.90844 -10.8903,-1.89209 -10.23141,0.0271 -21.5076,1.64672 -32.34531,4.6458 -2.65086,0.73357 -2.97656,0.88795 -2.97656,1.41093 0,0.7887 0.24243,0.98226 1.04558,0.83484 0.37082,-0.0681 1.09093,-0.18916 1.60025,-0.2691 z"
       id="path847" />
  </g>
</svg>
